<svg width="81" height="80" viewBox="0 0 81 80" fill="none" xmlns="http://www.w3.org/2000/svg">
<path d="M35.0801 9.32257C38.6749 7.40086 42.9918 7.40086 46.5866 9.32257L66.0885 19.748C70.0593 21.8707 72.5387 26.0075 72.5387 30.5101V49.7805C72.5387 54.2831 70.0593 58.4198 66.0885 60.5426L46.5866 70.968C42.9918 72.8897 38.6749 72.8897 35.0801 70.968L15.5781 60.5426C11.6073 58.4198 9.12799 54.2831 9.12799 49.7805V30.5101C9.12799 26.0075 11.6073 21.8707 15.5781 19.748L35.0801 9.32257Z" fill="#2F2F2F"/>
<mask id="mask0_814_10029" style="mask-type:alpha" maskUnits="userSpaceOnUse" x="9" y="6" width="64" height="65">
<path d="M35.0801 7.89398C38.6749 5.97227 42.9918 5.97227 46.5866 7.89398L66.0885 18.3194C70.0593 20.4421 72.5387 24.5789 72.5387 29.0815V48.3519C72.5387 52.8545 70.0593 56.9913 66.0885 59.114L46.5866 69.5394C42.9918 71.4611 38.6749 71.4611 35.0801 69.5394L15.5781 59.114C11.6073 56.9913 9.12799 52.8545 9.12799 48.3519V29.0815C9.12799 24.5789 11.6073 20.4421 15.5781 18.3194L35.0801 7.89398Z" fill="#222222"/>
</mask>
<g mask="url(#mask0_814_10029)">
<g opacity="0.5">
<g opacity="0.5">
<path fill-rule="evenodd" clip-rule="evenodd" d="M60.0645 44.5497L57.6878 49.902L60.0641 55.2548C60.1507 55.4473 60.1338 55.6706 60.0193 55.8481C59.9052 56.0253 59.7088 56.1326 59.498 56.1332H53.2764V57.3793C53.2764 57.5446 53.2109 57.7031 53.0942 57.8199C52.9776 57.9367 52.8193 58.0024 52.6543 58.0024H49.6356C49.292 58.0024 49.0135 57.7234 49.0135 57.3793C49.0135 57.0353 49.292 56.7563 49.6356 56.7563H52.0321V46.7872H29.6344V56.7563H46.3406C46.6841 56.7563 46.9627 57.0353 46.9627 57.3793C46.9627 57.7234 46.6841 58.0024 46.3406 58.0024H29.0123C28.8473 58.0024 28.689 57.9367 28.5723 57.8199C28.4556 57.7031 28.3901 57.5446 28.3901 57.3793V56.1332H22.1685C21.9577 56.1326 21.7613 56.0253 21.6472 55.8481C21.5327 55.6706 21.5158 55.4473 21.6025 55.2548L23.9789 49.9026L21.6025 44.5503C21.5158 44.3578 21.5327 44.1345 21.6472 43.957C21.7613 43.7798 21.9577 43.6725 22.1685 43.6719H29.1803C27.1199 41.0911 25.9714 37.8993 25.9139 34.5951C25.8565 31.2911 26.8936 28.0611 28.8628 25.41C28.9553 25.2629 29.1047 25.1614 29.2753 25.1297C29.4455 25.0977 29.6216 25.1386 29.7608 25.242C29.8996 25.3458 29.9893 25.5027 30.008 25.6754C30.0266 25.8478 29.9721 26.0206 29.8582 26.1513C28.4006 28.1151 27.4946 30.4338 27.2338 32.8668C26.9733 35.2998 27.3676 37.7581 28.3762 39.987C29.3847 42.2159 30.9707 44.1334 32.969 45.5412H48.6972C51.0767 43.8664 52.8618 41.4762 53.7936 38.7169C54.7252 35.9575 54.7552 32.9729 53.8786 30.1955C53.0023 27.4182 51.2653 24.9927 48.9197 23.2706C46.5739 21.5485 43.7416 20.6195 40.8331 20.6184C37.8167 20.6087 34.8831 21.6061 32.4961 23.4533C32.3731 23.5888 32.1965 23.6633 32.0137 23.6567C31.8309 23.6503 31.6601 23.5635 31.5471 23.4194C31.4338 23.2756 31.3896 23.0889 31.4263 22.9093C31.4629 22.7298 31.5765 22.5755 31.7371 22.4876C34.6317 20.2804 38.2312 19.2073 41.8594 19.4699C45.488 19.7324 48.896 21.3124 51.4435 23.9134C53.991 26.5138 55.5025 29.9565 55.6947 33.5947C55.8866 37.2326 54.7459 40.816 52.4864 43.6713H59.4982C59.709 43.6719 59.9054 43.7792 60.0195 43.9564C60.134 44.1339 60.1512 44.3572 60.0645 44.5497ZM51.4909 45.5405L51.1923 45.0918C51.1392 45.141 51.0868 45.1908 51.0344 45.2406C50.9272 45.3424 50.8199 45.4443 50.7071 45.5405H51.4909ZM30.176 45.5405H30.9597C30.8469 45.4443 30.7397 45.3424 30.6325 45.2406C30.5801 45.1908 30.5276 45.1409 30.4745 45.0918L30.176 45.5405ZM25.2298 50.1573L23.1269 54.8865L28.3903 54.8865V46.1636L28.3964 46.1074C28.4061 46.0245 28.4317 45.9441 28.4711 45.8707L28.4714 45.8209L29.0935 44.9174H23.1269L25.2298 49.6527C25.3009 49.8135 25.3009 49.9968 25.2298 50.1573ZM53.2764 54.8865L58.5397 54.8864L56.4494 50.1511C56.3783 49.9904 56.3783 49.807 56.4494 49.6466L58.5461 44.9174H52.5795L53.2017 45.8209V45.8707C53.2414 45.9441 53.2667 46.0245 53.2764 46.1074V54.8865Z" fill="white"/>
<path fill-rule="evenodd" clip-rule="evenodd" d="M47.6771 31.7213C47.6052 31.4968 47.471 31.2976 47.2902 31.1466C47.1097 30.9953 46.89 30.8988 46.6566 30.8676L43.3842 30.4315L41.9533 27.4719C41.8166 27.1896 41.5789 26.9693 41.2872 26.8547C40.9953 26.7404 40.6715 26.7404 40.3795 26.8547C40.0879 26.9693 39.8501 27.1896 39.7135 27.4719L38.2825 30.4565L35.0101 30.8927C34.7796 30.9216 34.5621 31.0145 34.3818 31.1611C34.2013 31.3074 34.0655 31.5015 33.9896 31.7213C33.9177 31.9441 33.9099 32.1825 33.9672 32.4094C34.0244 32.6367 34.1444 32.8428 34.3132 33.0047L36.7025 35.2914L36.1114 38.5439C36.0664 38.7769 36.0884 39.0178 36.1756 39.2387C36.2625 39.4595 36.4108 39.6506 36.6027 39.79C36.7927 39.9282 37.0183 40.01 37.2527 40.0253C37.4874 40.0409 37.7212 39.9894 37.9279 39.877L40.8334 38.2946L43.7389 39.8648C43.9456 39.9769 44.1794 40.0284 44.4141 40.0131C44.6486 39.9975 44.8741 39.916 45.0641 39.7775C45.256 39.6381 45.4043 39.447 45.4912 39.2262C45.5785 39.0053 45.6007 38.7644 45.5557 38.5313L44.9335 35.2789L47.3227 32.9922C47.4947 32.835 47.6188 32.6322 47.6816 32.4078C47.7444 32.183 47.7427 31.9452 47.6771 31.7213ZM43.8569 34.6185C43.7047 34.7646 43.6369 34.9782 43.6766 35.1854L44.2988 38.768L41.0947 37.036C40.912 36.9386 40.6925 36.9386 40.5098 37.036L37.3057 38.768L37.9279 35.1854C37.9676 34.9782 37.8998 34.7646 37.7476 34.6185L35.1095 32.1263L38.718 31.6404C38.9263 31.6125 39.1066 31.4812 39.1971 31.2913L40.8334 27.989L42.4074 31.2726C42.4979 31.4626 42.6782 31.5936 42.8865 31.6214L46.495 32.1074L43.8569 34.6185Z" fill="white"/>
<path d="M31.501 51.7711H38.3447C38.6883 51.7711 38.9669 52.0501 38.9669 52.3942C38.9669 52.7383 38.6883 53.0173 38.3447 53.0173H31.501C31.1574 53.0173 30.8788 52.7383 30.8788 52.3942C30.8788 52.0501 31.1574 51.7711 31.501 51.7711Z" fill="white"/>
<path d="M31.501 54.2634C31.1574 54.2634 30.8788 54.5424 30.8788 54.8865C30.8788 55.2305 31.1574 55.5095 31.501 55.5095H35.8561C36.1997 55.5095 36.4782 55.2305 36.4782 54.8865C36.4782 54.5424 36.1997 54.2634 35.8561 54.2634H31.501Z" fill="white"/>
<path d="M37.7226 54.2634H38.3447C38.6883 54.2634 38.9669 54.5424 38.9669 54.8865C38.9669 55.2305 38.6883 55.5095 38.3447 55.5095H37.7226C37.379 55.5095 37.1004 55.2305 37.1004 54.8865C37.1004 54.5424 37.379 54.2634 37.7226 54.2634Z" fill="white"/>
</g>
</g>
</g>
<path fill-rule="evenodd" clip-rule="evenodd" d="M66.4326 17.7897L48.0627 7.90294C43.5492 5.47374 38.1174 5.47374 33.6039 7.90294L15.2341 17.7897C10.2917 20.4498 7.20927 25.6092 7.20927 31.2221V49.0685C7.20927 54.6813 10.2916 59.8407 15.2341 62.5008L33.6039 72.3876C38.1174 74.8168 43.5492 74.8168 48.0627 72.3876L66.4326 62.5008C71.375 59.8407 74.4574 54.6813 74.4574 49.0685V31.2221C74.4574 25.6092 71.375 20.4498 66.4326 17.7897ZM48.5447 7.00745C43.7303 4.4163 37.9364 4.4163 33.122 7.00745L14.7522 16.8942C9.48019 19.7316 6.19232 25.235 6.19232 31.2221V49.0685C6.19232 55.0555 9.48019 60.5589 14.7522 63.3963L33.122 73.2831C37.9364 75.8742 43.7303 75.8742 48.5447 73.2831L66.9145 63.3963C72.1865 60.5589 75.4743 55.0555 75.4743 49.0685V31.2221C75.4743 25.235 72.1865 19.7316 66.9145 16.8942L48.5447 7.00745Z" fill="#2F2F2F"/>
</svg>
