<svg width="157" height="32" viewBox="0 0 157 32" fill="none" xmlns="http://www.w3.org/2000/svg">
<path d="M12.6004 9.49374e-05C11.9584 -0.00449672 11.3255 0.157536 10.7591 0.471502C10.1926 0.785468 9.71052 1.24144 9.35647 1.79806C9.25246 1.96377 1.23943 14.6168 0.831068 15.3417C0.520388 15.8411 0.283058 16.3859 0.126878 16.958C-0.0381443 17.5975 -0.0422605 18.2703 0.114936 18.9119C0.240991 19.3727 0.424716 19.8142 0.661407 20.2252C1.87969 22.4609 2.88739 24.04 4.09801 26.281C4.66494 27.2557 5.16197 28.2756 5.7366 29.247C5.58969 28.2013 5.83077 27.1365 6.41096 26.2686C7.00775 25.1742 21.8769 1.57565 22.1531 1.19107C22.3902 0.862735 22.6889 0.587876 23.0313 0.383153C23.3736 0.178432 23.7524 0.0481073 24.1446 9.49374e-05C24.1446 9.49374e-05 14.3106 0.0045256 12.6004 9.49374e-05Z" fill="url(#paint0_linear_243_6687)"/>
<path d="M41.8391 29.9264L42.1555 29.6606C42.1555 29.6606 27.4388 2.79302 26.8727 1.79965C26.6028 1.30583 26.1778 0.923291 25.6691 0.715921C25.2864 0.561105 24.8723 0.50926 24.4654 0.565185C24.0583 0.621108 23.6715 0.782982 23.3407 1.03581C23.0621 1.25806 22.8168 1.52205 22.6127 1.81915C22.004 2.71857 17.5929 9.75624 17.5929 9.75624L41.8391 29.9264Z" fill="url(#paint1_linear_243_6687)"/>
<path d="M29.4794 21.7223H10.1805C10.1805 21.7223 6.62374 27.072 6.5146 28.0829C6.39577 28.9337 6.54533 29.8013 6.94087 30.5561C7.89914 32.2496 9.96313 32.3912 11.8328 31.3058C15.514 29.158 29.4804 22.1113 29.4804 22.1113L29.4794 21.7223Z" fill="url(#paint2_linear_243_6687)"/>
<path d="M59.221 19.2757C59.1338 19.0732 58.9921 18.9012 58.8128 18.7804C58.6338 18.6596 58.4245 18.5952 58.2107 18.5948H51.8006L55.573 10.0969L54.6941 7.41759C54.6814 7.37782 54.6576 7.34285 54.6258 7.31715C54.5938 7.29145 54.5553 7.27617 54.515 7.27323C54.4746 7.27029 54.4344 7.27983 54.3993 7.30063C54.3643 7.32146 54.336 7.35263 54.3182 7.39016L53.7784 8.50172L46.4968 24.7272H48.7194C48.8259 24.7274 48.9305 24.6958 49.0201 24.6362C49.11 24.5767 49.1812 24.4916 49.2259 24.3912L50.7424 20.9744H59.9499L59.221 19.2757Z" fill="white"/>
<path d="M64.3728 7.27271H66.7285V22.2918H75.5681V24.7272H66.512C65.9447 24.7268 65.4009 24.494 64.9997 24.0799C64.5987 23.6659 64.3733 23.1045 64.3728 22.5189V7.27271Z" fill="white"/>
<path d="M90.9614 11.3563V20.6328C90.9627 21.7184 91.4076 22.7591 92.1989 23.5267C92.9901 24.2943 94.0627 24.726 95.1817 24.7272H104.955V22.8254C104.953 22.68 104.893 22.5412 104.787 22.4384C104.681 22.3355 104.538 22.2769 104.388 22.2747H95.1817C94.7832 22.2743 94.4014 22.1205 94.1196 21.8472C93.8378 21.5738 93.6794 21.2032 93.6789 20.8167V17.2149H102.511C102.661 17.2128 102.804 17.1541 102.91 17.0513C103.016 16.9485 103.077 16.8097 103.079 16.6643V14.7624H94.5536C94.2507 14.7601 93.9512 14.8255 93.6789 14.9535V11.1824C93.6794 10.7959 93.8378 10.4254 94.1196 10.1522C94.4014 9.879 94.7832 9.72543 95.1817 9.72519H104.388C104.538 9.7231 104.681 9.66442 104.787 9.56161C104.893 9.45879 104.953 9.31996 104.955 9.17456V7.27271H95.1817C94.0647 7.27412 92.9939 7.70447 92.2031 8.46969C91.4123 9.23487 90.9659 10.2727 90.9614 11.3563Z" fill="white"/>
<path d="M120.584 7.82476C120.584 8.25152 120.672 17.1872 120.843 20.466L112.863 8.54393C112.644 8.17288 112.341 7.86282 111.979 7.64114C111.617 7.41944 111.207 7.29291 110.786 7.27271H108.29C108.149 7.27459 108.014 7.33322 107.914 7.43616C107.814 7.5391 107.757 7.6782 107.754 7.82388V24.7272H109.782C109.924 24.7254 110.059 24.6667 110.159 24.5637C110.258 24.4608 110.316 24.3217 110.317 24.1761V9.72432H110.439C110.514 9.73056 110.586 9.75436 110.651 9.79387C110.715 9.83338 110.77 9.88754 110.811 9.95224L120.36 24.3277C120.426 24.4413 120.518 24.5366 120.628 24.6054C120.738 24.6743 120.863 24.7145 120.991 24.7227H123.148V7.27271H121.12C120.979 7.27459 120.843 7.33338 120.743 7.4365C120.643 7.53962 120.586 7.67892 120.584 7.82476Z" fill="white"/>
<path d="M72.7692 9.70829H80.0166V24.7272H82.5297V9.70829H89.5622V7.27271H72.7692V9.70829Z" fill="white"/>
<path fill-rule="evenodd" clip-rule="evenodd" d="M156.368 13.0535C156.368 15.823 155.133 17.7979 152.966 18.5274L156.8 24.7254H154.392C154.287 24.7253 154.183 24.6973 154.09 24.6439C153.997 24.5905 153.917 24.5134 153.86 24.4195L150.413 18.8324H144.082V24.1724C144.082 24.2453 144.068 24.3174 144.042 24.3848C144.016 24.4521 143.977 24.5132 143.929 24.5648C143.88 24.6163 143.823 24.6571 143.759 24.685C143.696 24.7129 143.628 24.7272 143.559 24.7272H141.788V12.2452C141.788 11.5922 141.909 10.9456 142.144 10.3423C142.38 9.73903 142.724 9.19087 143.159 8.72912C143.594 8.26739 144.111 7.90112 144.679 7.65121C145.247 7.40132 145.856 7.27271 146.471 7.27271H150.898C154.322 7.27271 156.368 9.43312 156.368 13.0535ZM144.081 12.2452V16.3987L150.894 16.4086C152.972 16.4086 154.07 15.2519 154.07 13.0598C154.07 10.8677 152.972 9.711 150.894 9.711H146.468C146.144 9.66378 145.814 9.69678 145.504 9.80744C145.195 9.9181 144.913 10.1034 144.682 10.3489C144.45 10.5943 144.276 10.8932 144.172 11.2222C144.068 11.5512 144.036 11.9014 144.081 12.2452Z" fill="white"/>
<path d="M131.424 7.29677C131.454 7.31463 131.479 7.34131 131.494 7.37349L132.066 8.53976L139.347 24.7272H137.125C137.018 24.7273 136.914 24.6958 136.824 24.6363C136.734 24.5769 136.663 24.4921 136.618 24.392L135.102 20.9832H125.894L126.621 19.2885C126.708 19.0864 126.85 18.9147 127.03 18.7942C127.209 18.6736 127.418 18.6094 127.632 18.6092H134.043L130.27 10.1313L131.17 7.39643C131.181 7.36237 131.202 7.33246 131.229 7.31052C131.257 7.28859 131.29 7.27558 131.324 7.27313C131.359 7.27068 131.394 7.27891 131.424 7.29677Z" fill="white"/>
<defs>
<linearGradient id="paint0_linear_243_6687" x1="0.217302" y1="20.0634" x2="28.0832" y2="7.72417" gradientUnits="userSpaceOnUse">
<stop stop-color="#00A7DA"/>
<stop offset="1" stop-color="#B3F3FF"/>
</linearGradient>
<linearGradient id="paint1_linear_243_6687" x1="19.1158" y1="6.89008" x2="47.6503" y2="18.3597" gradientUnits="userSpaceOnUse">
<stop offset="0.153" stop-color="#00709E"/>
<stop offset="0.608331" stop-color="#00D8FF"/>
</linearGradient>
<linearGradient id="paint2_linear_243_6687" x1="6.4749" y1="26.8612" x2="29.4804" y2="26.8612" gradientUnits="userSpaceOnUse">
<stop offset="0.153" stop-color="#00709E"/>
<stop offset="0.724175" stop-color="#00D8FF"/>
</linearGradient>
</defs>
</svg>
