<svg width="20" height="20" viewBox="0 0 20 20" fill="none" xmlns="http://www.w3.org/2000/svg">
<g clip-path="url(#clip0_3_9029)">
<path opacity="0.4" fill-rule="evenodd" clip-rule="evenodd" d="M10 20C15.5228 20 20 15.5228 20 10C20 4.47715 15.5228 0 10 0C4.47715 0 0 4.47715 0 10C0 15.5228 4.47715 20 10 20ZM10 19C14.9706 19 19 14.9706 19 10C19 5.02944 14.9706 1 10 1C5.02944 1 1 5.02944 1 10C1 14.9706 5.02944 19 10 19Z" fill="white"/>
<path fill-rule="evenodd" clip-rule="evenodd" d="M10 18C14.4183 18 18 14.4183 18 10C18 5.58172 14.4183 2 10 2C5.58172 2 2 5.58172 2 10C2 14.4183 5.58172 18 10 18ZM10 4.76392C10.3788 4.76392 10.725 4.97792 10.8944 5.3167L15.618 14.7639H13.382L10 7.99998L8.23607 11.5278L10.2472 10.5223L11.1416 12.3111L6.44722 14.6583C6.30743 14.7282 6.15709 14.7628 6.00773 14.7639H5.99286C5.73596 14.762 5.48307 14.6612 5.2929 14.471C4.98854 14.1667 4.91308 13.7017 5.10558 13.3167L9.10557 5.3167C9.27497 4.97792 9.62123 4.76392 10 4.76392Z" fill="white"/>
</g>
<defs>
<clipPath id="clip0_3_9029">
<rect width="20" height="20" rx="10" fill="white"/>
</clipPath>
</defs>
</svg>
