<svg width="211" height="169" viewBox="0 0 211 169" fill="none" xmlns="http://www.w3.org/2000/svg">
<path d="M205.301 107.409L205.297 107.401L205.293 107.393C201.129 98.0876 139.266 -30.0504 78.4272 -155.897C48.0115 -218.813 17.8567 -281.145 -4.69428 -327.749C-15.9698 -351.051 -25.3443 -370.421 -31.8999 -383.965C-35.1777 -390.738 -37.7508 -396.053 -39.5045 -399.676L-39.9803 -400.659L-5.50523 155.842L-4.7103 155.899C-3.62152 155.978 -2.0221 156.093 0.0204376 156.24C4.10551 156.534 9.96299 156.954 17.0526 157.461C31.2318 158.475 50.3393 159.835 70.0526 161.217C109.489 163.981 151.311 166.833 160.992 167.192C167.327 167.382 173.619 166.644 179.664 165.002C186.632 162.95 192.894 159.173 197.873 154.024L198.592 154.719L197.873 154.024C202.852 148.874 206.39 142.513 208.154 135.533C210.477 126.239 209.476 116.309 205.301 107.409Z" stroke="#0087D2" stroke-width="2"/>
</svg>
