<svg width="20" height="20" viewBox="0 0 20 20" fill="none" xmlns="http://www.w3.org/2000/svg">
<g opacity="0.4" clip-path="url(#clip0_386_14277)">
<path d="M9.54009 6.4699C9.21512 6.144 8.68748 6.14325 8.36158 6.46823C8.03568 6.7932 8.03494 7.32084 8.35991 7.64674L10.7065 9.99998L8.35991 12.3532C8.03494 12.6791 8.03568 13.2068 8.36158 13.5317C8.68748 13.8567 9.21512 13.856 9.54009 13.5301L12.4734 10.5884C12.7977 10.2632 12.7977 9.73681 12.4734 9.41156L9.54009 6.4699Z" fill="white"/>
<path fill-rule="evenodd" clip-rule="evenodd" d="M10 0.833344C4.95644 0.833344 0.833344 4.95644 0.833344 10C0.833344 15.0436 4.95644 19.1667 10 19.1667C15.0436 19.1667 19.1667 15.0436 19.1667 10C19.1667 4.95644 15.0436 0.833344 10 0.833344ZM2.50001 10C2.50001 5.87691 5.87691 2.50001 10 2.50001C14.1231 2.50001 17.5 5.87691 17.5 10C17.5 14.1231 14.1231 17.5 10 17.5C5.87691 17.5 2.50001 14.1231 2.50001 10Z" fill="white"/>
</g>
<defs>
<clipPath id="clip0_386_14277">
<rect width="20" height="20" fill="white"/>
</clipPath>
</defs>
</svg>
