<svg width="12" height="12" viewBox="0 0 12 12" fill="none" xmlns="http://www.w3.org/2000/svg">
<g opacity="0.5">
<path d="M10.1464 1.14645C10.3417 0.951184 10.6583 0.951184 10.8536 1.14645C11.0488 1.34171 11.0488 1.65829 10.8536 1.85355L6.70711 6L10.8536 10.1464C11.0488 10.3417 11.0488 10.6583 10.8536 10.8536C10.6583 11.0488 10.3417 11.0488 10.1464 10.8536L6 6.70711L1.85355 10.8536C1.65829 11.0488 1.34171 11.0488 1.14645 10.8536C0.951185 10.6583 0.951185 10.3417 1.14645 10.1464L5.29289 6L1.14645 1.85355C0.951185 1.65829 0.951185 1.34171 1.14645 1.14645C1.34171 0.951184 1.65829 0.951184 1.85355 1.14645L6 5.29289L10.1464 1.14645Z" fill="white"/>
</g>
</svg>
