<svg width="65" height="64" viewBox="0 0 65 64" fill="none" xmlns="http://www.w3.org/2000/svg">
<circle opacity="0.2" cx="47.084" cy="23.4534" r="13" fill="#0087D2"/>
<path d="M17.2291 44.0414C17.3031 44.1148 17.3766 44.1888 17.3766 44.2623C17.4132 44.2992 17.4316 44.3542 17.45 44.4093C17.4684 44.4646 17.4869 44.5201 17.524 44.5571V44.8515C17.524 45.2198 17.3766 45.5882 17.1552 45.8086C16.8608 46.1029 16.4925 46.2504 16.1241 46.2504H15.8298C15.7437 46.2504 15.6826 46.2252 15.6321 46.2043C15.5963 46.1895 15.5658 46.1769 15.5354 46.1769C15.4985 46.1398 15.4615 46.1213 15.4245 46.1028C15.3878 46.0845 15.3511 46.0661 15.3145 46.0295C15.241 46.0295 15.1671 45.9555 15.0936 45.8821C14.7992 45.5877 14.6518 45.2193 14.6518 44.851V44.5566C14.6518 44.4097 14.6518 44.3357 14.7252 44.2623C14.7624 44.2254 14.7808 44.1884 14.7993 44.1514C14.8177 44.1147 14.8361 44.078 14.8727 44.0414C14.8727 43.9679 14.9467 43.8939 15.0201 43.8205C15.0936 43.8205 15.1676 43.7465 15.241 43.673C15.2779 43.6359 15.3149 43.6174 15.3519 43.5989C15.3886 43.5805 15.4253 43.5622 15.4619 43.5256C15.548 43.5256 15.609 43.5004 15.6596 43.4795C15.6953 43.4647 15.7259 43.4521 15.7563 43.4521C16.2715 43.3047 16.7133 43.4521 17.0817 43.8205C17.1188 43.8573 17.1373 43.8943 17.1558 43.9313C17.1742 43.968 17.1925 44.0048 17.2291 44.0414Z" fill="#0087D2"/>
<path fill-rule="evenodd" clip-rule="evenodd" d="M40.6491 10.4578C42.6377 9.35332 44.9208 8.76408 47.3512 8.76408L47.3513 8.76381C55.3049 8.76381 61.7126 15.1712 61.7126 23.1251C61.7126 30.2692 56.4834 36.2346 49.6344 37.3391C50.592 42.7158 52.3598 44.9248 53.6852 45.8824C55.2319 46.9135 56.1155 48.6072 56.1155 50.4484C56.1155 53.4681 53.6116 55.972 50.5919 55.972H39.1764V56.1194C38.5132 60.6119 34.61 64 30.044 64C25.478 64 21.5746 60.6119 20.9119 56.1194V55.972H8.02358C5.00389 55.972 2.5 53.5416 2.5 50.4484C2.5 48.6811 3.38351 46.9134 4.93038 45.8824C6.77157 44.704 9.79126 40.6534 9.79126 27.3968C9.79126 15.0239 17.3035 10.0161 22.827 8.02747C22.7531 7.58561 22.6796 7.06984 22.6796 6.62803C22.6796 2.94564 25.6252 0 29.3076 0C32.99 0 35.9356 2.94564 35.9356 6.62803C35.9356 7.06989 35.8617 7.58566 35.7882 8.02747C37.5559 8.61665 39.1763 9.4268 40.6491 10.4578ZM32.9899 6.55451C32.9899 4.49238 31.3696 2.87213 29.3075 2.87213C27.2453 2.87213 25.6251 4.49238 25.5517 6.55451C25.5517 6.66497 25.57 6.75705 25.5884 6.84914C25.6068 6.94122 25.6251 7.03331 25.6251 7.14376C27.0985 6.84939 29.8967 6.48105 32.9164 7.14376C32.9899 6.92286 32.9899 6.77542 32.9899 6.55451ZM24.3732 57.3714C25.3307 59.581 27.5403 61.0538 30.0442 61.0538C32.5481 61.0538 34.7576 59.581 35.7887 57.3714H24.3732ZM50.0025 46.3243L21.9424 46.3245C21.1323 46.3245 20.4696 45.6619 20.4696 44.8517C20.4696 44.0416 21.1322 43.3789 21.9424 43.3789H48.3083C47.5721 41.7585 46.9828 39.7699 46.6145 37.4869C39.029 37.1187 32.9897 30.7847 32.9897 23.1256C32.9897 18.7805 34.9043 14.8772 37.9975 12.2259C36.5246 11.4158 34.9783 10.7531 33.2106 10.2373C29.1599 8.98534 25.4775 10.2373 25.4775 10.2373H25.404C19.6596 11.8575 12.7366 16.129 12.7366 27.3235C12.7366 38.4444 10.6746 45.4408 6.62385 48.2395C5.88718 48.6813 5.44537 49.4914 5.44537 50.375C5.44537 51.7745 6.62386 52.9529 8.0233 52.9529L50.5917 52.9524C51.9911 52.9524 53.1696 51.7739 53.1696 50.3745C53.1696 49.5644 52.7278 48.7548 51.9911 48.239C51.2544 47.7237 50.5918 47.1344 50.0025 46.3243ZM35.9361 23.1254C35.9361 29.3857 41.0913 34.5409 47.3516 34.5409C53.6114 34.5409 58.7666 29.3857 58.7666 23.1254C58.7666 16.8651 53.6114 11.7099 47.3516 11.7099C41.0913 11.7099 35.9361 16.8651 35.9361 23.1254Z" fill="#0087D2"/>
</svg>
