<svg width="24" height="24" viewBox="0 0 24 24" fill="none" xmlns="http://www.w3.org/2000/svg">
<path fill-rule="evenodd" clip-rule="evenodd" d="M14.5872 2.39959C17.1778 3.42805 19.0201 5.9628 19.0201 8.90991V11.7999C19.0201 11.9847 19.0633 12.2757 19.152 12.5992C19.2391 12.917 19.3492 13.1897 19.4423 13.3532L20.5876 15.2554C21.575 16.9011 20.7865 19.0459 18.9655 19.6489C17.9157 19.9995 16.8467 20.2686 15.7674 20.4562C15.1984 21.9736 13.7313 23.0591 12.02 23.0591C10.9234 23.0591 9.91222 22.6055 9.19292 21.8862C8.78476 21.4774 8.47332 20.9891 8.27458 20.4583C7.19073 20.2705 6.11725 20.0005 5.06321 19.6484L5.0595 19.6471C4.15295 19.3403 3.45978 18.7001 3.14857 17.8597C2.83692 17.018 2.94686 16.0793 3.44324 15.2543L4.59115 13.3478L4.59207 13.3463C4.68649 13.1874 4.79894 12.9162 4.88778 12.5962C4.97699 12.2748 5.02009 11.9844 5.02009 11.7999V8.90991C5.02009 5.95289 6.85932 3.42058 9.4548 2.39596C9.97664 1.52272 10.9312 0.940918 12.0199 0.940918C13.1102 0.940918 14.0659 1.52433 14.5872 2.39959ZM10.4776 4.15318C8.47273 4.80455 7.02009 6.69027 7.02009 8.90991V11.7999C7.02009 12.2254 6.93319 12.705 6.81491 13.1311C6.69654 13.5576 6.52443 14.0107 6.30904 14.372L6.3068 14.3757L5.15694 16.2855C4.94348 16.6404 4.94328 16.9469 5.02412 17.1652C5.10529 17.3844 5.30665 17.6188 5.69897 17.7521C9.80274 19.1227 14.2295 19.1225 18.3332 17.7514L18.3362 17.7504C18.9339 17.5529 19.2047 16.8389 18.873 16.2852L17.7186 14.3677L17.7139 14.3596C17.5078 14.0023 17.3398 13.5533 17.2232 13.1281C17.1069 12.7041 17.0201 12.2251 17.0201 11.7999V8.90991C17.0201 6.68395 15.5419 4.78312 13.5197 4.14151C12.5233 3.87248 11.4724 3.87637 10.4776 4.15318ZM10.9635 20.7547C11.6674 20.7885 12.3724 20.7883 13.0763 20.7542C12.769 20.9472 12.4066 21.0591 12.02 21.0591C11.6375 21.0591 11.2722 20.9469 10.9635 20.7547Z" fill="white"/>
</svg>
