<svg width="81" height="80" viewBox="0 0 81 80" fill="none" xmlns="http://www.w3.org/2000/svg">
<g id="Achieves State">
<path id="Back" d="M34.4134 9.32257C38.0082 7.40086 42.3251 7.40086 45.9199 9.32257L65.4219 19.748C69.3927 21.8707 71.872 26.0075 71.872 30.5101V49.7805C71.872 54.2831 69.3927 58.4198 65.4219 60.5426L45.9199 70.968C42.3251 72.8897 38.0082 72.8897 34.4134 70.968L14.9115 60.5426C10.9407 58.4198 8.46133 54.2831 8.46133 49.7805V30.5101C8.46133 26.0075 10.9407 21.8707 14.9115 19.748L34.4134 9.32257Z" fill="#0087D2"/>
<g id="Image">
<mask id="mask0_386_15098" style="mask-type:alpha" maskUnits="userSpaceOnUse" x="8" y="7" width="64" height="66">
<path id="Mask" d="M34.4134 9.32257C38.0082 7.40086 42.3251 7.40086 45.9199 9.32257L65.4219 19.748C69.3927 21.8707 71.872 26.0075 71.872 30.5101V49.7805C71.872 54.2831 69.3927 58.4198 65.4219 60.5426L45.9199 70.968C42.3251 72.8897 38.0082 72.8897 34.4134 70.968L14.9115 60.5426C10.9407 58.4198 8.46133 54.2831 8.46133 49.7805V30.5101C8.46133 26.0075 10.9407 21.8707 14.9115 19.748L34.4134 9.32257Z" fill="#222222"/>
</mask>
<g mask="url(#mask0_386_15098)">
<g id="Component">
<g id="Achieves">
<path id="Vector" opacity="0.4" d="M33.0238 31.5739C33.0238 37.0967 28.5467 41.5739 23.0238 41.5739C17.501 41.5739 13.0238 37.0967 13.0238 31.5739C13.0238 26.051 17.501 21.5739 23.0238 21.5739C28.5467 21.5739 33.0238 26.051 33.0238 31.5739Z" fill="white"/>
<g id="Vector_2">
<path fill-rule="evenodd" clip-rule="evenodd" d="M31.9649 42.5549L36.1674 44.9564C35.9633 46.0708 35.9258 47.4059 36.0922 48.9868C36.386 51.7774 37.5505 54.2669 38.8468 56.2233C39.1136 56.6261 39.3878 57.0089 39.6638 57.37L35.7871 72.3165C35.6275 72.9318 35.9969 73.56 36.6122 73.7196C37.2275 73.8792 37.8557 73.5098 38.0153 72.8945L41.499 59.4635C41.9049 59.8652 42.283 60.2004 42.6105 60.4612C43.1077 60.8573 43.8318 60.7752 44.2279 60.278C44.6239 59.7808 44.5419 59.0566 44.0446 58.6606C43.237 58.0173 41.93 56.709 40.7657 54.9519C39.6026 53.1964 38.625 51.058 38.3816 48.7458C38.0615 45.7048 38.6312 44.1815 39.2062 43.4678C39.7591 42.7816 40.4456 42.6804 40.8676 42.7571C41.7545 42.9184 43.3414 43.0271 44.8604 43.0453C45.1758 43.0491 45.4925 43.0491 45.804 43.0446C45.9596 43.0733 46.1185 43.0691 46.2706 43.0343C46.5553 43.0258 46.8326 43.0131 47.097 42.9957C47.5511 42.966 48.0019 42.9207 48.4002 42.8494C48.4856 43.1961 48.4885 43.7272 48.2815 44.2753C48.0721 44.8295 47.6464 45.4061 46.8441 45.8236C46.0271 46.2488 44.7496 46.5436 42.8024 46.3767C42.169 46.3225 41.6116 46.7919 41.5573 47.4252C41.5054 48.0303 41.9315 48.5661 42.5219 48.6601C42.5444 48.6677 42.5672 48.6748 42.5903 48.6812C43.5844 48.9549 44.9872 49.5577 46.0191 50.4731C47.0209 51.3619 47.5758 52.4366 47.2851 53.807C47.1532 54.4288 47.5504 55.0398 48.1722 55.1717C48.7941 55.3036 49.4051 54.9065 49.537 54.2846C50.052 51.8567 48.9523 49.998 47.5467 48.7511C47.3553 48.5813 47.1565 48.4208 46.9528 48.2696C47.2936 48.1546 47.6113 48.0194 47.9068 47.8656C48.249 47.6876 48.5563 47.4871 48.8309 47.2693C49.084 47.7138 49.4472 48.1017 49.9059 48.3884C51.3428 49.2864 53.2317 48.8969 54.1962 47.5038L54.5488 46.9944L61.4156 51.1784C62.238 51.6795 62.5019 52.7505 62.0064 53.5763C61.5327 54.3659 60.5286 54.6541 59.7082 54.236L52.1469 50.3826C51.5805 50.094 50.8874 50.3191 50.5987 50.8855C50.3101 51.4519 50.5353 52.145 51.1016 52.4336L55.7797 54.8176C55.3378 56.5401 54.5116 57.5618 53.6832 58.1759C52.7352 58.8787 51.7043 59.1053 51.0529 59.1302C50.4177 59.1544 49.9224 59.6889 49.9466 60.3241C49.9707 60.9593 50.5053 61.4547 51.1405 61.4305C51.6773 61.41 52.3435 61.3076 53.0549 61.068L49.6398 75.7985C49.4962 76.4177 49.8818 77.0361 50.501 77.1797C51.1203 77.3233 51.7387 76.9377 51.8823 76.3184L55.8094 59.3796C56.6682 58.5363 57.4033 57.3945 57.8702 55.883L58.663 56.287C59.4973 56.7122 60.4137 56.8216 61.2719 56.6557C61.3204 56.6801 61.3713 56.7015 61.4243 56.7193L65.8429 58.2059C66.8055 58.5298 67.8574 58.0764 68.283 57.1543C68.65 56.3592 68.4538 55.4176 67.7997 54.8353L64.4793 51.8794C64.2646 50.8076 63.6197 49.8257 62.6134 49.2126L55.8613 45.0985L58.3298 41.533C58.4814 41.314 58.6081 41.0853 58.7105 40.8502L63.3434 32.7799C63.5638 32.3961 64.0553 32.2664 64.4364 32.4916C64.7797 32.6944 64.9194 33.1203 64.7629 33.4871L59.7255 45.2975C59.4761 45.8822 59.7479 46.5584 60.3326 46.8078C60.9173 47.0572 61.5935 46.7854 61.8429 46.2006L66.8803 34.3902C67.4901 32.9606 66.9455 31.3004 65.6075 30.5097C64.1221 29.632 62.206 30.1376 61.347 31.6339L58.2998 36.9419C58.0135 36.54 57.6472 36.1845 57.2059 35.9007C56.0756 35.1741 54.7406 35.0956 53.6012 35.5371C53.495 35.1036 53.3107 34.6812 53.0247 34.2857C52.5674 33.6532 51.9084 33.1699 51.0846 32.8038C50.221 32.4199 49.3872 32.2986 48.6059 32.4227C48.4232 32.4517 48.248 32.4933 48.0801 32.5458L50.5106 21.6085C50.903 19.8429 49.8395 18.0805 48.0946 17.6046C46.287 17.1116 44.4225 18.1793 43.9327 19.9877L39.8304 35.1347L37.0562 33.5028C37.1437 32.8656 37.1889 32.2149 37.1889 31.5536C37.1889 30.8455 37.137 30.1489 37.0366 29.4674C36.9439 28.8385 36.3589 28.4039 35.7301 28.4966C35.1012 28.5892 34.6665 29.1742 34.7592 29.8031C34.8433 30.3737 34.887 30.9582 34.887 31.5536C34.887 34.9587 33.4557 38.0308 31.161 40.1995C31.0758 40.2586 30.9979 40.3297 30.9299 40.4122C29.7545 41.4661 28.3681 42.2895 26.8415 42.8111C26.24 43.0167 25.919 43.671 26.1245 44.2725C26.3301 44.874 26.9844 45.195 27.5859 44.9894C29.1952 44.4395 30.6744 43.6085 31.9649 42.5549ZM47.4889 19.8255C46.9094 19.6674 46.3116 20.0097 46.1546 20.5895L41.8875 36.3448L43.1438 37.0837C43.6917 37.406 43.8746 38.1115 43.5523 38.6594C43.23 39.2073 42.5245 39.3902 41.9766 39.0679L36.5239 35.8604C35.9275 37.7354 34.9522 39.4414 33.6881 40.8883L36.9303 42.741C37.0767 42.4801 37.2383 42.2412 37.4137 42.0236C38.5513 40.6116 40.1189 40.2812 41.2794 40.4923C41.8943 40.604 43.0861 40.7006 44.3753 40.7338C44.3435 40.3301 44.3498 39.907 44.3753 39.5003C44.4477 38.3419 44.6908 37.0883 44.8928 36.277L48.2635 21.1091C48.3892 20.5431 48.0483 19.978 47.4889 19.8255ZM53.476 38.6317C53.8707 37.6449 55.0671 37.2624 55.9611 37.8371C56.642 38.2748 56.9013 39.1162 56.6353 39.8414L56.381 40.2843C56.3659 40.3107 56.3519 40.3373 56.3391 40.3643L53.4875 44.4833C53.3686 44.57 53.2644 44.681 53.1831 44.8145C53.1264 44.9076 53.0844 45.0056 53.0566 45.1057L52.3035 46.1935C52.0388 46.5759 51.5203 46.6828 51.1259 46.4363C50.7686 46.2129 50.6224 45.7657 50.7789 45.3744L53.476 38.6317ZM51.4142 36.4486C51.4469 37.2311 51.119 38.2575 50.576 39.6835L50.0238 41.0641C49.9922 41.0287 49.9594 40.9943 49.9253 40.9609C49.5592 40.6029 48.9681 40.3202 48.282 40.5193C48.0361 40.5907 47.5822 40.657 46.9465 40.6987C46.8617 40.7043 46.775 40.7093 46.6866 40.7138C46.6514 40.4399 46.6457 40.0764 46.6728 39.6439C46.7338 38.6667 46.9463 37.5572 47.1266 36.8331C47.2823 36.2698 47.6485 35.5329 48.1719 35.0846C48.4197 34.8723 48.6821 34.7414 48.9668 34.6962C49.2478 34.6516 49.6321 34.6773 50.1497 34.9073C50.707 35.155 50.9994 35.4133 51.1593 35.6344C51.313 35.8471 51.3997 36.1015 51.4142 36.4486ZM64.0724 54.5991C64.0431 54.6534 64.0124 54.7072 63.9803 54.7607C63.9141 54.8711 63.8433 54.9773 63.7684 55.0792L65.124 55.5353L64.0724 54.5991Z" fill="white"/>
<path fill-rule="evenodd" clip-rule="evenodd" d="M16.4721 42.406C16.447 41.8047 16.8878 41.2918 17.4739 41.2164C14.1242 39.2989 11.8672 35.6898 11.8672 31.5536C11.8672 25.4087 16.8486 20.4273 22.9934 20.4273C25.0436 20.4273 26.9643 20.9819 28.6136 21.9491C28.426 21.4 28.6788 20.7863 29.2166 20.5353C29.7927 20.2665 30.4775 20.5155 30.7464 21.0915C31.0843 21.8156 31.1628 22.6987 31.1116 23.5911C31.1054 23.6987 31.0972 23.8081 31.0871 23.9191C32.9672 25.9115 34.1196 28.5979 34.1196 31.5536C34.1196 37.6984 29.1382 42.6798 22.9934 42.6798C22.1097 42.6798 21.2501 42.5768 20.4259 42.3821C20.3029 42.4688 20.1807 42.551 20.0593 42.6285C19.305 43.11 18.4839 43.4737 17.6703 43.5078C17.0352 43.5344 16.4987 43.0411 16.4721 42.406ZM22.9934 40.3778C22.8941 40.3778 22.7952 40.3762 22.6967 40.3729C24.2454 38.7476 25.8609 36.5622 27.3128 34.0474C28.7653 31.5315 29.8502 29.0393 30.4832 26.8855C31.3289 28.2396 31.8176 29.8395 31.8176 31.5536C31.8176 36.4271 27.8669 40.3778 22.9934 40.3778ZM28.3371 26.0196C28.4618 25.5763 28.5619 25.159 28.6382 24.7706C27.1082 23.4961 25.1404 22.7293 22.9934 22.7293C18.1199 22.7293 14.1692 26.6801 14.1692 31.5536C14.1692 35.3536 16.5712 38.5926 19.9397 39.8351C20.2196 39.591 20.5113 39.3158 20.8123 39.0099C22.2718 37.5269 23.8682 35.4096 25.3192 32.8964C26.75 30.4182 27.777 28.0097 28.3371 26.0196Z" fill="white"/>
</g>
<g id="Vector_3" opacity="0.5">
<path d="M31.8164 9.16955C31.8679 8.56572 32.7512 8.56572 32.8026 9.16955L32.9733 11.1733C32.9937 11.4134 33.1842 11.6039 33.4244 11.6244L35.4281 11.795C36.0319 11.8464 36.0319 12.7298 35.4281 12.7812L33.4244 12.9519C33.1842 12.9723 32.9937 13.1628 32.9733 13.4029L32.8026 15.4067C32.7512 16.0105 31.8679 16.0105 31.8164 15.4067L31.6458 13.4029C31.6253 13.1628 31.4348 12.9723 31.1947 12.9519L29.191 12.7812C28.5871 12.7298 28.5871 11.8464 29.191 11.795L31.1947 11.6244C31.4348 11.6039 31.6253 11.4134 31.6458 11.1733L31.8164 9.16955Z" fill="white"/>
<path d="M57.8026 20.5981C57.7512 19.9943 56.8679 19.9943 56.8164 20.5981L56.6458 22.6018C56.6253 22.842 56.4348 23.0325 56.1947 23.0529L54.191 23.2236C53.5871 23.275 53.5871 24.1583 54.191 24.2098L56.1947 24.3804C56.4348 24.4009 56.6253 24.5914 56.6458 24.8315L56.8164 26.8352C56.8679 27.4391 57.7512 27.4391 57.8026 26.8352L57.9733 24.8315C57.9937 24.5914 58.1842 24.4009 58.4244 24.3804L60.4281 24.2098C61.0319 24.1583 61.0319 23.275 60.4281 23.2236L58.4244 23.0529C58.1842 23.0325 57.9937 22.842 57.9733 22.6018L57.8026 20.5981Z" fill="white"/>
<path d="M21.374 48.4553C21.3226 47.8514 20.4393 47.8514 20.3879 48.4553L20.2172 50.459C20.1967 50.6991 20.0063 50.8896 19.7661 50.9101L17.7624 51.0807C17.1586 51.1322 17.1586 52.0155 17.7624 52.0669L19.7661 52.2376C20.0063 52.258 20.1967 52.4485 20.2172 52.6887L20.3879 54.6924C20.4393 55.2962 21.3226 55.2962 21.374 54.6924L21.5447 52.6887C21.5652 52.4485 21.7556 52.258 21.9958 52.2376L23.9995 52.0669C24.6033 52.0155 24.6033 51.1322 23.9995 51.0807L21.9958 50.9101C21.7556 50.8896 21.5652 50.6991 21.5447 50.459L21.374 48.4553Z" fill="white"/>
<path d="M62.036 61.3124C61.9846 60.7086 61.1013 60.7086 61.0498 61.3124L60.8792 63.3161C60.8587 63.5563 60.6682 63.7467 60.4281 63.7672L58.4244 63.9379C57.8205 63.9893 57.8205 64.8726 58.4244 64.924L60.4281 65.0947C60.6682 65.1152 60.8587 65.3057 60.8792 65.5458L61.0498 67.5495C61.1013 68.1533 61.9846 68.1533 62.036 67.5495L62.2067 65.5458C62.2271 65.3057 62.4176 65.1152 62.6578 65.0947L64.6615 64.924C65.2653 64.8726 65.2653 63.9893 64.6615 63.9379L62.6578 63.7672C62.4176 63.7467 62.2271 63.5563 62.2067 63.3161L62.036 61.3124Z" fill="white"/>
</g>
</g>
</g>
</g>
</g>
<path id="Border" fill-rule="evenodd" clip-rule="evenodd" d="M65.7659 17.7897L47.3961 7.90294C42.8826 5.47374 37.4508 5.47374 32.9373 7.90294L14.5675 17.7897C9.62499 20.4498 6.54261 25.6092 6.54261 31.2221V49.0685C6.54261 54.6813 9.62498 59.8407 14.5675 62.5008L32.9373 72.3876C37.4508 74.8168 42.8826 74.8168 47.3961 72.3876L65.7659 62.5008C70.7084 59.8407 73.7907 54.6813 73.7907 49.0685V31.2221C73.7907 25.6092 70.7084 20.4498 65.7659 17.7897ZM47.878 7.00745C43.0636 4.4163 37.2697 4.4163 32.4553 7.00745L14.0855 16.8942C8.81353 19.7316 5.52566 25.235 5.52566 31.2221V49.0685C5.52566 55.0555 8.81352 60.5589 14.0855 63.3963L32.4553 73.2831C37.2697 75.8742 43.0636 75.8742 47.878 73.2831L66.2478 63.3963C71.5198 60.5589 74.8077 55.0555 74.8077 49.0685V31.2221C74.8077 25.235 71.5198 19.7316 66.2478 16.8942L47.878 7.00745Z" fill="#0087D2"/>
</g>
</svg>
