<svg width="24" height="24" viewBox="0 0 24 24" fill="none" xmlns="http://www.w3.org/2000/svg">
<path d="M10.9542 7.36888C11.632 7.12038 12.368 7.12038 13.0457 7.36888C13.5642 7.55901 14.1387 7.29278 14.3289 6.77426C14.519 6.25573 14.2528 5.68125 13.7342 5.49113C12.612 5.07963 11.388 5.07963 10.2657 5.49113C9.74719 5.68125 9.48097 6.25573 9.6711 6.77426C9.86123 7.29278 10.4357 7.55901 10.9542 7.36888Z" fill="black"/>
<path fill-rule="evenodd" clip-rule="evenodd" d="M12 1C9.23772 1 7 3.23772 7 6V11.5C7 14.2623 9.23772 16.5 12 16.5C14.7623 16.5 17 14.2623 17 11.5V6C17 3.23772 14.7623 1 12 1ZM9 6C9 4.34228 10.3423 3 12 3C13.6577 3 15 4.34228 15 6V11.5C15 13.1577 13.6577 14.5 12 14.5C10.3423 14.5 9 13.1577 9 11.5V6Z" fill="black"/>
<path d="M5.34998 9.65C5.34998 9.09772 4.90226 8.65 4.34998 8.65C3.79769 8.65 3.34998 9.09772 3.34998 9.65V11.35C3.34998 15.7841 6.69759 19.4459 11 19.9426V22C11 22.5523 11.4477 23 12 23C12.5523 23 13 22.5523 13 22V19.9426C17.3024 19.4459 20.65 15.7841 20.65 11.35V9.65C20.65 9.09772 20.2023 8.65 19.65 8.65C19.0977 8.65 18.65 9.09772 18.65 9.65V11.35C18.65 15.0177 15.6677 18 12 18C8.33226 18 5.34998 15.0177 5.34998 11.35V9.65Z" fill="black"/>
</svg>
