<svg width="81" height="80" viewBox="0 0 81 80" fill="none" xmlns="http://www.w3.org/2000/svg">
<path d="M34.7468 9.32257C38.3416 7.40086 42.6585 7.40086 46.2533 9.32257L65.7552 19.748C69.726 21.8707 72.2054 26.0075 72.2054 30.5101V49.7805C72.2054 54.2831 69.726 58.4198 65.7552 60.5426L46.2533 70.968C42.6585 72.8897 38.3416 72.8897 34.7468 70.968L15.2448 60.5426C11.274 58.4198 8.79468 54.2831 8.79468 49.7805V30.5101C8.79468 26.0075 11.274 21.8707 15.2448 19.748L34.7468 9.32257Z" fill="#0087D2"/>
<mask id="mask0_814_10018" style="mask-type:alpha" maskUnits="userSpaceOnUse" x="8" y="7" width="65" height="66">
<path d="M34.7468 9.32257C38.3416 7.40086 42.6585 7.40086 46.2533 9.32257L65.7552 19.748C69.726 21.8707 72.2054 26.0075 72.2054 30.5101V49.7805C72.2054 54.2831 69.726 58.4198 65.7552 60.5426L46.2533 70.968C42.6585 72.8897 38.3416 72.8897 34.7468 70.968L15.2448 60.5426C11.274 58.4198 8.79468 54.2831 8.79468 49.7805V30.5101C8.79468 26.0075 11.274 21.8707 15.2448 19.748L34.7468 9.32257Z" fill="#222222"/>
</mask>
<g mask="url(#mask0_814_10018)">
<path opacity="0.4" d="M15.8572 41.2167C17.5714 38.3595 21.3333 35.9786 23 35.1452L26.5714 33.7167L30.8572 30.1452L46.9286 16.2167H50.5L51.2143 19.0738L37.2857 35.1452C36.6905 35.3833 34.7857 35.8595 31.9286 35.8595C29.0714 35.8595 28.8334 38.4786 29.0714 39.7881V44.7881C29.0714 45.8595 27.2857 48.7167 24.7857 49.7881C22.7857 50.6452 17.5238 50.6214 15.1429 50.5024C14.6667 48.5976 14.1429 44.0738 15.8572 41.2167Z" fill="white"/>
<path d="M44.318 29.9836C43.7415 29.8879 43.1964 30.2759 43.1003 30.8503C43.0042 31.4248 43.3936 31.968 43.9701 32.0638C44.4902 32.1501 45.2509 32.4609 45.7779 33.0672C46.2594 33.6211 46.6419 34.528 46.2874 36.0587C46.156 36.6261 46.5111 37.1922 47.0805 37.3232C47.6499 37.4541 48.2181 37.1003 48.3495 36.5329C48.8415 34.4082 48.3422 32.7962 47.3775 31.6865C46.4585 30.6292 45.2087 30.1315 44.318 29.9836Z" fill="white"/>
<path fill-rule="evenodd" clip-rule="evenodd" d="M46.1592 15.3537C47.6303 14.0637 49.8542 14.1343 51.2399 15.5152C52.627 16.8973 52.6965 19.116 51.3986 20.5817L48.6383 23.699C54.2836 28.0119 60.5845 27.419 64.2486 26.9381V26.4546C64.2486 24.3193 65.9857 22.5884 68.1285 22.5884H77.299C77.8834 22.5884 78.3572 23.0605 78.3572 23.6428C78.3572 24.2251 77.8834 24.6972 77.299 24.6972H68.1285C67.1545 24.6972 66.3649 25.484 66.3649 26.4546V27.8458C66.3651 27.8565 66.3651 27.8671 66.3649 27.8777V44.0281C66.3649 44.9987 67.1545 45.7855 68.1285 45.7855H77.299C77.8834 45.7855 78.3572 46.2575 78.3572 46.8399C78.3572 47.4222 77.8834 47.8943 77.299 47.8943H68.1285C65.9857 47.8943 64.2486 46.1634 64.2486 44.0281V43.3252H54.3727C54.2033 43.3252 54.0432 43.2855 53.9012 43.215C52.0686 44.2402 49.5853 44.9182 46.3131 45.0812C44.462 45.1734 43.0672 45.0146 41.9389 44.704C41.7942 44.6641 41.6547 44.622 41.5201 44.578C41.4669 44.6647 41.4001 44.7452 41.3199 44.8162L40.4132 45.6193C39.2463 46.6529 37.6341 46.8286 36.3195 46.2296C36.0226 46.8237 35.554 47.3424 34.9318 47.7041C33.389 48.6009 31.4178 48.2159 30.3288 46.8052L29.6877 45.9747C29.2519 47.239 28.4436 48.3447 27.4374 49.2139C25.7443 50.6764 23.4168 51.5433 21.0909 51.4414C18.1127 51.3109 15.3889 51.823 13.7426 53.4566L13.735 53.4643C13.6833 53.5158 13.6276 53.5608 13.569 53.5994C13.1741 53.8592 12.6431 53.8276 12.2814 53.5047C12.2668 53.4917 12.2525 53.4782 12.2385 53.4643C11.8253 53.0525 11.8253 52.3849 12.2385 51.9731L12.2462 51.9655C13.8856 50.325 14.3995 47.6108 14.2686 44.6431C14.1133 41.1226 16.2172 37.4936 19.4097 36.2054C19.9514 35.9868 20.5683 36.2472 20.7876 36.787C21.007 37.3268 20.7457 37.9415 20.204 38.1601C17.9399 39.0736 16.262 41.8122 16.3828 44.5505C16.4324 45.6749 16.4011 46.8461 16.2342 47.9915L20.6369 43.6043C20.3273 42.7373 20.5207 41.7319 21.2171 41.0379C22.1813 40.0771 23.7446 40.0771 24.7088 41.0379C24.8293 41.158 24.9348 41.2874 25.0252 41.4238C25.6579 42.3788 25.5525 43.6766 24.7088 44.5173C24.7034 44.5227 24.6979 44.5281 24.6924 44.5335C23.9966 45.2142 22.9966 45.4016 22.1333 45.0954L17.7306 49.4827C18.88 49.3164 20.0554 49.2852 21.1838 49.3346C22.9431 49.4117 24.7471 48.7468 26.0512 47.6204C27.3483 46.5 28.0762 44.9981 27.897 43.3911C27.8325 42.8123 28.251 42.291 28.8318 42.2267C29.2603 42.1793 29.6575 42.3938 29.8622 42.742L32.0062 45.5194C32.4461 46.0893 33.2423 46.2447 33.8655 45.8825C34.5899 45.4614 34.7987 44.5133 34.3177 43.8287L33.4012 42.524C33.3533 42.4557 33.3146 42.3838 33.2848 42.3096C29.9541 42.1622 28.1234 40.9434 27.6208 39.441C27.3072 38.5035 27.5223 37.0752 28.7966 36.0474C30.0434 35.0416 32.1508 34.5318 35.443 34.8963C35.5849 34.912 35.725 34.9262 35.8633 34.939L49.8118 19.1864C50.3702 18.5557 50.3403 17.6011 49.7435 17.0063C49.1472 16.4122 48.1903 16.3818 47.5572 16.9369L31.7927 30.7608C31.354 31.1455 30.6854 31.103 30.2993 30.6659C29.9132 30.2287 29.9559 29.5624 30.3946 29.1777L38.7231 21.8744C38.5054 21.8934 38.27 21.9209 38.018 21.9572C36.5953 22.162 34.8045 22.6223 33.0013 23.2229C31.2009 23.8226 29.4309 24.5479 28.0496 25.2651C27.3576 25.6243 26.7851 25.9702 26.3614 26.2846C25.9093 26.6201 25.7331 26.8427 25.6912 26.9262C25.0075 28.2888 24.1549 30.3322 23.6929 32.0063C23.4742 32.7985 23.3685 33.4202 23.3691 33.8231C24.2309 33.7677 25.1431 33.5219 25.8836 32.9836C26.6979 32.3917 27.4165 31.3668 27.5701 29.5302C27.6187 28.9499 28.1301 28.5187 28.7125 28.567C29.2949 28.6154 29.7276 29.125 29.6791 29.7053C29.48 32.0864 28.4923 33.6976 27.1308 34.6873C25.8077 35.6491 24.243 35.9443 22.9812 35.9443C22.4249 35.9443 21.9299 35.6953 21.6165 35.2337C21.3501 34.8415 21.2751 34.3844 21.2575 34.0179C21.2215 33.2725 21.4037 32.348 21.6524 31.4471C22.1603 29.6064 23.0713 27.4322 23.7984 25.9831C24.0699 25.4421 24.5806 24.9767 25.0975 24.5931C25.6429 24.1884 26.3217 23.7842 27.0718 23.3948C28.5745 22.6147 30.4518 21.8486 32.3304 21.2228C34.2063 20.598 36.1265 20.0988 37.7154 19.87C38.5062 19.7562 39.2562 19.7032 39.8958 19.7505C40.213 19.774 40.574 19.8263 40.9184 19.9494L46.1592 15.3537ZM38.6207 35.0124L47.2351 25.2837C53.4686 30.1195 60.4305 29.559 64.2486 29.0661V41.2163H56.3709C57.1333 40.3121 57.6153 39.317 57.8682 38.3088C58.01 37.7439 57.6653 37.1714 57.0983 37.0302C56.5314 36.8889 55.9569 37.2324 55.8151 37.7974C55.5272 38.9452 54.8051 40.1286 53.3502 41.0824C51.8783 42.0473 49.6096 42.8055 46.2075 42.975C44.5315 43.0585 43.3691 42.9099 42.5024 42.6713C41.6424 42.4346 41.0234 42.0962 40.4254 41.7264C40.3209 41.6617 40.2128 41.5931 40.101 41.5221C39.6003 41.2042 39.0253 40.839 38.37 40.5778C37.5179 40.2382 36.5385 40.0659 35.245 40.165C30.7628 40.5086 29.7332 39.0872 29.6285 38.7741C29.5894 38.6571 29.5506 38.1523 30.1281 37.6864C30.733 37.1985 32.1527 36.6538 35.2093 36.9922C40.4721 37.5749 43.9165 36.29 45.1316 35.3819C45.5991 35.0325 45.6939 34.3716 45.3432 33.9058C44.9926 33.4399 44.3294 33.3455 43.8618 33.6949C43.3561 34.0729 41.5866 34.8822 38.6207 35.0124ZM39.4813 43.6232C39.423 43.588 39.3657 43.553 39.3094 43.5181C39.1623 43.4271 39.0266 43.3414 38.8988 43.2606L38.8958 43.2588L38.8951 43.2583C38.4112 42.9524 38.0389 42.7171 37.5841 42.5358C37.1288 42.3544 36.5788 42.2286 35.7906 42.248L36.0514 42.6193C36.3212 43.0033 36.5033 43.4208 36.6028 43.849C37.1968 44.5792 38.2918 44.6768 39.0072 44.0431L39.4813 43.6232ZM23.2124 42.5291C23.0746 42.3918 22.8513 42.3918 22.7136 42.5291C22.5758 42.6663 22.5758 42.8889 22.7136 43.0261C22.7308 43.0433 22.7493 43.0583 22.7689 43.0712C22.9058 43.1612 23.0918 43.1462 23.2123 43.0261C23.2123 43.0261 23.2123 43.0261 23.2123 43.0261C23.3501 42.8889 23.3501 42.6663 23.2124 42.5291C23.2124 42.5291 23.2124 42.5291 23.2124 42.5291Z" fill="white"/>
<path d="M16.813 53.7864C17.3205 53.4975 17.9668 53.6733 18.2567 54.179C20.0019 57.2237 26.0161 63.1609 36.1727 62.5982C33.9829 59.43 33.7804 55.5463 35.5324 52.8382C37.1065 50.4051 39.8538 49.7606 42.1129 50.4159C44.3815 51.0739 46.3 53.0927 46.1049 56.007C45.8251 60.1864 43.3756 62.3387 41.9383 63.1379C41.428 63.4217 40.7835 63.2394 40.4987 62.7309C40.214 62.2224 40.3968 61.5801 40.9071 61.2964C41.8733 60.7592 43.772 59.1733 43.9934 55.8666C44.1115 54.1021 43.0019 52.8701 41.5214 52.4407C40.0312 52.0084 38.3082 52.4397 37.3111 53.9808C35.2316 57.1952 36.9279 64.0587 44.8565 65.6486C51.1409 66.9088 55.5252 62.982 57.3205 59.7139C57.6011 59.2031 58.2442 59.0156 58.7568 59.2953C59.2694 59.5749 59.4575 60.2157 59.1769 60.7265C57.1101 64.4886 51.9415 69.2205 44.439 67.716C41.7007 67.1669 39.5243 66.023 37.9048 64.5633C37.888 64.5665 37.8711 64.5693 37.8541 64.5717L37.8397 64.5736L37.8228 64.5756C25.8152 65.9146 18.58 58.995 16.419 55.2249C16.1292 54.7192 16.3056 54.0752 16.813 53.7864Z" fill="white"/>
<g opacity="0.5">
<path d="M24.313 11.7037C24.3644 11.0999 25.2477 11.0999 25.2991 11.7037L25.4698 13.7074C25.4903 13.9476 25.6807 14.1381 25.9209 14.1585L27.9246 14.3292C28.5284 14.3806 28.5284 15.2639 27.9246 15.3154L25.9209 15.486C25.6807 15.5065 25.4903 15.697 25.4698 15.9371L25.2991 17.9408C25.2477 18.5447 24.3644 18.5447 24.313 17.9408L24.1423 15.9371C24.1218 15.697 23.9314 15.5065 23.6912 15.486L21.6875 15.3154C21.0837 15.2639 21.0837 14.3806 21.6875 14.3292L23.6912 14.1585C23.9314 14.1381 24.1218 13.9476 24.1423 13.7074L24.313 11.7037Z" fill="white"/>
<path d="M58.47 14.3292C58.4186 13.7254 57.5352 13.7254 57.4838 14.3292L57.3131 16.3329C57.2927 16.573 57.1022 16.7635 56.8621 16.784L54.8583 16.9547C54.2545 17.0061 54.2545 17.8894 54.8583 17.9408L56.8621 18.1115C57.1022 18.132 57.2927 18.3224 57.3131 18.5626L57.4838 20.5663C57.5352 21.1701 58.4186 21.1701 58.47 20.5663L58.6407 18.5626C58.6611 18.3224 58.8516 18.132 59.0917 18.1115L61.0955 17.9408C61.6993 17.8894 61.6993 17.0061 61.0955 16.9547L59.0917 16.784C58.8516 16.7635 58.6611 16.5731 58.6407 16.3329L58.47 14.3292Z" fill="white"/>
<path d="M9.4688 43.1939C9.41737 42.59 8.53406 42.59 8.48262 43.1939L8.31196 45.1976C8.29151 45.4377 8.10102 45.6282 7.86087 45.6487L5.85716 45.8193C5.25333 45.8708 5.25333 46.7541 5.85716 46.8055L7.86087 46.9762C8.10102 46.9966 8.29151 47.1871 8.31196 47.4273L8.48262 49.431C8.53406 50.0348 9.41737 50.0348 9.4688 49.431L9.63947 47.4273C9.65992 47.1871 9.85041 46.9966 10.0906 46.9762L12.0943 46.8055C12.6981 46.7541 12.6981 45.8708 12.0943 45.8193L10.0906 45.6487C9.85041 45.6282 9.65992 45.4377 9.63947 45.1976L9.4688 43.1939Z" fill="white"/>
<path d="M56.4663 50.8414C56.4149 50.2376 55.5315 50.2376 55.4801 50.8414L55.3094 52.8451C55.289 53.0853 55.0985 53.2758 54.8583 53.2962L52.8546 53.4669C52.2508 53.5183 52.2508 54.4016 52.8546 54.4531L54.8583 54.6237C55.0985 54.6442 55.289 54.8347 55.3094 55.0748L55.4801 57.0785C55.5315 57.6824 56.4149 57.6824 56.4663 57.0785L56.6369 55.0748C56.6574 54.8347 56.8479 54.6442 57.088 54.6237L59.0917 54.4531C59.6956 54.4016 59.6956 53.5183 59.0917 53.4669L57.088 53.2962C56.8479 53.2758 56.6574 53.0853 56.6369 52.8451L56.4663 50.8414Z" fill="white"/>
</g>
</g>
<path fill-rule="evenodd" clip-rule="evenodd" d="M66.0992 17.7897L47.7294 7.90294C43.2159 5.47374 37.7841 5.47374 33.2706 7.90294L14.9008 17.7897C9.95832 20.4498 6.87594 25.6092 6.87594 31.2221V49.0685C6.87594 54.6813 9.95832 59.8407 14.9008 62.5008L33.2706 72.3876C37.7841 74.8168 43.2159 74.8168 47.7294 72.3876L66.0992 62.5008C71.0417 59.8407 74.1241 54.6813 74.1241 49.0685V31.2221C74.1241 25.6092 71.0417 20.4498 66.0992 17.7897ZM48.2114 7.00745C43.397 4.4163 37.6031 4.4163 32.7887 7.00745L14.4188 16.8942C9.14686 19.7316 5.85899 25.235 5.85899 31.2221V49.0685C5.85899 55.0555 9.14686 60.5589 14.4188 63.3963L32.7887 73.2831C37.6031 75.8742 43.397 75.8742 48.2114 73.2831L66.5812 63.3963C71.8531 60.5589 75.141 55.0555 75.141 49.0685V31.2221C75.141 25.235 71.8532 19.7316 66.5812 16.8942L48.2114 7.00745Z" fill="#0087D2"/>
</svg>
