<svg width="81" height="80" viewBox="0 0 81 80" fill="none" xmlns="http://www.w3.org/2000/svg">
<path d="M34.7468 9.32257C38.3416 7.40086 42.6585 7.40086 46.2533 9.32257L65.7552 19.748C69.726 21.8707 72.2054 26.0075 72.2054 30.5101V49.7805C72.2054 54.2831 69.726 58.4198 65.7552 60.5426L46.2533 70.968C42.6585 72.8897 38.3416 72.8897 34.7468 70.968L15.2448 60.5426C11.274 58.4198 8.79468 54.2831 8.79468 49.7805V30.5101C8.79468 26.0075 11.274 21.8707 15.2448 19.748L34.7468 9.32257Z" fill="#2F2F2F"/>
<mask id="mask0_3108_36979" style="mask-type:alpha" maskUnits="userSpaceOnUse" x="8" y="6" width="65" height="65">
<path d="M34.7468 7.89398C38.3416 5.97227 42.6585 5.97227 46.2533 7.89398L65.7552 18.3194C69.726 20.4421 72.2054 24.5789 72.2054 29.0815V48.3519C72.2054 52.8545 69.726 56.9913 65.7552 59.114L46.2533 69.5394C42.6585 71.4611 38.3416 71.4611 34.7468 69.5394L15.2448 59.114C11.274 56.9913 8.79468 52.8545 8.79468 48.3519V29.0815C8.79468 24.5789 11.274 20.4421 15.2448 18.3194L34.7468 7.89398Z" fill="#222222"/>
</mask>
<g mask="url(#mask0_3108_36979)">
<path d="M43.3572 40.3571C21.3572 34.6428 4.90478 42.7381 -0.571411 47.5V80.3571H81.5714V40.3571C78 42.7381 65.3572 46.0714 43.3572 40.3571Z" fill="#0087D2"/>
<g opacity="0.5">
<path opacity="0.4" d="M15.8572 39.7881C17.5714 36.9309 21.3333 34.55 23 33.7167L26.5714 32.2881L30.8572 28.7167L46.9286 14.7881H50.5L51.2143 17.6452L37.2857 33.7167C36.6905 33.9548 34.7857 34.4309 31.9286 34.4309C29.0714 34.4309 28.8334 37.05 29.0714 38.3595V43.3595C29.0714 44.4309 27.2857 47.2881 24.7857 48.3595C22.7857 49.2167 17.5238 49.1928 15.1429 49.0738C14.6667 47.169 14.1429 42.6452 15.8572 39.7881Z" fill="white"/>
<path d="M44.318 28.555C43.7415 28.4593 43.1964 28.8473 43.1003 29.4218C43.0042 29.9962 43.3936 30.5394 43.9701 30.6352C44.4902 30.7216 45.2509 31.0323 45.7779 31.6386C46.2594 32.1925 46.6419 33.0994 46.2874 34.6301C46.156 35.1975 46.5111 35.7636 47.0805 35.8946C47.6499 36.0255 48.2181 35.6717 48.3495 35.1043C48.8415 32.9796 48.3422 31.3676 47.3775 30.2579C46.4585 29.2006 45.2087 28.703 44.318 28.555Z" fill="white"/>
<path fill-rule="evenodd" clip-rule="evenodd" d="M46.1592 13.9252C47.6303 12.6351 49.8542 12.7057 51.2399 14.0866C52.627 15.4687 52.6965 17.6874 51.3986 19.1531L48.6383 22.2704C54.2836 26.5833 60.5845 25.9904 64.2486 25.5095V25.026C64.2486 22.8907 65.9857 21.1598 68.1285 21.1598H77.299C77.8834 21.1598 78.3572 21.6319 78.3572 22.2142C78.3572 22.7965 77.8834 23.2686 77.299 23.2686H68.1285C67.1545 23.2686 66.3649 24.0554 66.3649 25.026V26.4173C66.3651 26.4279 66.3651 26.4385 66.3649 26.4491V42.5995C66.3649 43.5701 67.1545 44.3569 68.1285 44.3569H77.299C77.8834 44.3569 78.3572 44.829 78.3572 45.4113C78.3572 45.9936 77.8834 46.4657 77.299 46.4657H68.1285C65.9857 46.4657 64.2486 44.7348 64.2486 42.5995V41.8966H54.3727C54.2033 41.8966 54.0432 41.8569 53.9012 41.7864C52.0686 42.8116 49.5853 43.4896 46.3131 43.6526C44.462 43.7449 43.0672 43.586 41.9389 43.2754C41.7942 43.2356 41.6547 43.1935 41.5201 43.1494C41.4669 43.2361 41.4001 43.3166 41.3199 43.3876L40.4132 44.1907C39.2463 45.2243 37.6341 45.4 36.3195 44.801C36.0226 45.3951 35.554 45.9138 34.9318 46.2755C33.389 47.1723 31.4178 46.7873 30.3288 45.3766L29.6877 44.5461C29.2519 45.8104 28.4436 46.9162 27.4374 47.7853C25.7443 49.2478 23.4168 50.1147 21.0909 50.0128C18.1127 49.8823 15.3889 50.3945 13.7426 52.0281L13.735 52.0357C13.6833 52.0872 13.6276 52.1322 13.569 52.1708C13.1741 52.4306 12.6431 52.399 12.2814 52.0761C12.2668 52.0631 12.2525 52.0496 12.2385 52.0357C11.8253 51.6239 11.8253 50.9563 12.2385 50.5445L12.2462 50.5369C13.8856 48.8964 14.3995 46.1822 14.2686 43.2145C14.1133 39.694 16.2172 36.065 19.4097 34.7768C19.9514 34.5582 20.5683 34.8186 20.7876 35.3584C21.007 35.8982 20.7457 36.5129 20.204 36.7315C17.9399 37.645 16.262 40.3836 16.3828 43.1219C16.4324 44.2463 16.4011 45.4175 16.2342 46.5629L20.6369 42.1757C20.3273 41.3087 20.5207 40.3033 21.2171 39.6093C22.1813 38.6485 23.7446 38.6485 24.7088 39.6093C24.8293 39.7294 24.9348 39.8588 25.0252 39.9953C25.6579 40.9502 25.5525 42.248 24.7088 43.0887C24.7034 43.0941 24.6979 43.0995 24.6924 43.1049C23.9966 43.7857 22.9966 43.973 22.1333 43.6669L17.7306 48.0541C18.88 47.8878 20.0554 47.8566 21.1838 47.906C22.9431 47.9831 24.7471 47.3183 26.0512 46.1918C27.3483 45.0715 28.0762 43.5695 27.897 41.9625C27.8325 41.3837 28.251 40.8624 28.8318 40.7981C29.2603 40.7507 29.6575 40.9652 29.8622 41.3134L32.0062 44.0908C32.4461 44.6607 33.2423 44.8161 33.8655 44.4539C34.5899 44.0328 34.7987 43.0847 34.3177 42.4001L33.4012 41.0954C33.3533 41.0271 33.3146 40.9552 33.2848 40.881C29.9541 40.7336 28.1234 39.5149 27.6208 38.0124C27.3072 37.075 27.5223 35.6467 28.7966 34.6188C30.0434 33.613 32.1508 33.1032 35.443 33.4677C35.5849 33.4834 35.725 33.4976 35.8633 33.5104L49.8118 17.7578C50.3702 17.1272 50.3403 16.1725 49.7435 15.5777C49.1472 14.9836 48.1903 14.9532 47.5572 15.5083L31.7927 29.3323C31.354 29.717 30.6854 29.6744 30.2993 29.2373C29.9132 28.8001 29.9559 28.1338 30.3946 27.7491L38.7231 20.4458C38.5054 20.4649 38.27 20.4923 38.018 20.5286C36.5953 20.7334 34.8045 21.1937 33.0013 21.7943C31.2009 22.394 29.4309 23.1194 28.0496 23.8365C27.3576 24.1957 26.7851 24.5416 26.3614 24.856C25.9093 25.1915 25.7331 25.4141 25.6912 25.4976C25.0075 26.8602 24.1549 28.9037 23.6929 30.5777C23.4742 31.3699 23.3685 31.9916 23.3691 32.3945C24.2309 32.3391 25.1431 32.0933 25.8836 31.555C26.6979 30.9631 27.4165 29.9382 27.5701 28.1016C27.6187 27.5213 28.1301 27.0901 28.7125 27.1384C29.2949 27.1868 29.7276 27.6964 29.6791 28.2768C29.48 30.6578 28.4923 32.269 27.1308 33.2587C25.8077 34.2205 24.243 34.5158 22.9812 34.5158C22.4249 34.5158 21.9299 34.2667 21.6165 33.8052C21.3501 33.4129 21.2751 32.9558 21.2575 32.5894C21.2215 31.8439 21.4037 30.9194 21.6524 30.0185C22.1603 28.1778 23.0713 26.0036 23.7984 24.5545C24.0699 24.0135 24.5806 23.5481 25.0975 23.1646C25.6429 22.7599 26.3217 22.3556 27.0718 21.9663C28.5745 21.1861 30.4518 20.42 32.3304 19.7943C34.2063 19.1694 36.1265 18.6702 37.7154 18.4415C38.5062 18.3276 39.2562 18.2746 39.8958 18.3219C40.213 18.3454 40.574 18.3977 40.9184 18.5208L46.1592 13.9252ZM38.6207 33.5838L47.2351 23.8551C53.4686 28.6909 60.4305 28.1304 64.2486 27.6376V39.7878H56.3709C57.1333 38.8835 57.6153 37.8884 57.8682 36.8803C58.01 36.3153 57.6653 35.7428 57.0983 35.6016C56.5314 35.4604 55.9569 35.8038 55.8151 36.3688C55.5272 37.5166 54.8051 38.7 53.3502 39.6538C51.8783 40.6187 49.6096 41.3769 46.2075 41.5464C44.5315 41.6299 43.3691 41.4813 42.5024 41.2427C41.6424 41.006 41.0234 40.6677 40.4254 40.2978C40.3209 40.2332 40.2128 40.1645 40.101 40.0935C39.6003 39.7756 39.0253 39.4104 38.37 39.1493C37.5179 38.8096 36.5385 38.6373 35.245 38.7365C30.7628 39.08 29.7332 37.6587 29.6285 37.3455C29.5894 37.2285 29.5506 36.7237 30.1281 36.2578C30.733 35.7699 32.1527 35.2252 35.2093 35.5637C40.4721 36.1463 43.9165 34.8615 45.1316 33.9533C45.5991 33.6039 45.6939 32.943 45.3432 32.4772C44.9926 32.0113 44.3294 31.9169 43.8618 32.2663C43.3561 32.6443 41.5866 33.4536 38.6207 33.5838ZM39.4813 42.1946C39.423 42.1595 39.3657 42.1244 39.3094 42.0895C39.1623 41.9985 39.0266 41.9128 38.8988 41.832L38.8958 41.8302L38.8951 41.8297C38.4112 41.5238 38.0389 41.2885 37.5841 41.1072C37.1288 40.9258 36.5788 40.8 35.7906 40.8194L36.0514 41.1907C36.3212 41.5747 36.5033 41.9922 36.6028 42.4204C37.1968 43.1506 38.2918 43.2482 39.0072 42.6145L39.4813 42.1946ZM23.2124 41.1005C23.0746 40.9632 22.8513 40.9632 22.7136 41.1005C22.5758 41.2377 22.5758 41.4603 22.7136 41.5975C22.7308 41.6147 22.7493 41.6297 22.7689 41.6426C22.9058 41.7326 23.0918 41.7176 23.2123 41.5975C23.2123 41.5976 23.2123 41.5975 23.2123 41.5975C23.3501 41.4603 23.3501 41.2377 23.2124 41.1005C23.2124 41.1005 23.2124 41.1005 23.2124 41.1005Z" fill="white"/>
<path d="M16.813 52.3578C17.3205 52.069 17.9668 52.2447 18.2567 52.7504C20.0019 55.7951 26.0161 61.7323 36.1727 61.1696C33.9829 58.0014 33.7804 54.1177 35.5324 51.4096C37.1065 48.9765 39.8538 48.332 42.1129 48.9873C44.3815 49.6453 46.3 51.6641 46.1049 54.5784C45.8251 58.7579 43.3756 60.9101 41.9383 61.7093C41.428 61.9931 40.7835 61.8109 40.4987 61.3023C40.214 60.7938 40.3968 60.1515 40.9071 59.8678C41.8733 59.3306 43.772 57.7447 43.9934 54.438C44.1115 52.6735 43.0019 51.4415 41.5214 51.0121C40.0312 50.5798 38.3082 51.0111 37.3111 52.5523C35.2316 55.7666 36.9279 62.6301 44.8565 64.22C51.1409 65.4802 55.5252 61.5534 57.3205 58.2853C57.6011 57.7745 58.2442 57.5871 58.7568 57.8667C59.2694 58.1463 59.4575 58.7871 59.1769 59.2979C57.1101 63.06 51.9415 67.7919 44.439 66.2874C41.7007 65.7383 39.5243 64.5944 37.9048 63.1347C37.888 63.1379 37.8711 63.1407 37.8541 63.1431L37.8397 63.145L37.8228 63.147C25.8152 64.4861 18.58 57.5664 16.419 53.7963C16.1292 53.2907 16.3056 52.6466 16.813 52.3578Z" fill="white"/>
<g opacity="0.5">
<path d="M24.313 10.2751C24.3644 9.67131 25.2477 9.67131 25.2991 10.2751L25.4698 12.2789C25.4903 12.519 25.6807 12.7095 25.9209 12.7299L27.9246 12.9006C28.5284 12.952 28.5284 13.8354 27.9246 13.8868L25.9209 14.0574C25.6807 14.0779 25.4903 14.2684 25.4698 14.5085L25.2991 16.5122C25.2477 17.1161 24.3644 17.1161 24.313 16.5122L24.1423 14.5085C24.1218 14.2684 23.9314 14.0779 23.6912 14.0574L21.6875 13.8868C21.0837 13.8354 21.0837 12.952 21.6875 12.9006L23.6912 12.7299C23.9314 12.7095 24.1218 12.519 24.1423 12.2788L24.313 10.2751Z" fill="white"/>
<path d="M58.47 12.9006C58.4186 12.2968 57.5352 12.2968 57.4838 12.9006L57.3131 14.9043C57.2927 15.1445 57.1022 15.3349 56.8621 15.3554L54.8583 15.5261C54.2545 15.5775 54.2545 16.4608 54.8583 16.5122L56.8621 16.6829C57.1022 16.7034 57.2927 16.8939 57.3131 17.134L57.4838 19.1377C57.5352 19.7415 58.4186 19.7415 58.47 19.1377L58.6407 17.134C58.6611 16.8939 58.8516 16.7034 59.0917 16.6829L61.0955 16.5122C61.6993 16.4608 61.6993 15.5775 61.0955 15.5261L59.0917 15.3554C58.8516 15.3349 58.6611 15.1445 58.6407 14.9043L58.47 12.9006Z" fill="white"/>
<path d="M9.4688 41.7653C9.41737 41.1614 8.53406 41.1614 8.48262 41.7653L8.31196 43.769C8.29151 44.0091 8.10102 44.1996 7.86087 44.2201L5.85716 44.3907C5.25333 44.4422 5.25333 45.3255 5.85716 45.3769L7.86087 45.5476C8.10102 45.568 8.29151 45.7585 8.31196 45.9987L8.48262 48.0024C8.53406 48.6062 9.41737 48.6062 9.4688 48.0024L9.63947 45.9987C9.65992 45.7585 9.85041 45.568 10.0906 45.5476L12.0943 45.3769C12.6981 45.3255 12.6981 44.4422 12.0943 44.3907L10.0906 44.2201C9.85041 44.1996 9.65992 44.0091 9.63947 43.769L9.4688 41.7653Z" fill="white"/>
<path d="M56.4663 49.4128C56.4149 48.809 55.5315 48.809 55.4801 49.4128L55.3094 51.4165C55.289 51.6567 55.0985 51.8472 54.8583 51.8676L52.8546 52.0383C52.2508 52.0897 52.2508 52.973 52.8546 53.0245L54.8583 53.1951C55.0985 53.2156 55.289 53.4061 55.3094 53.6462L55.4801 55.6499C55.5315 56.2538 56.4149 56.2538 56.4663 55.6499L56.6369 53.6462C56.6574 53.4061 56.8479 53.2156 57.088 53.1951L59.0917 53.0245C59.6956 52.973 59.6956 52.0897 59.0917 52.0383L57.088 51.8676C56.8479 51.8472 56.6574 51.6567 56.6369 51.4165L56.4663 49.4128Z" fill="white"/>
</g>
</g>
</g>
<path fill-rule="evenodd" clip-rule="evenodd" d="M66.0992 17.7897L47.7294 7.90294C43.2159 5.47374 37.7841 5.47374 33.2706 7.90294L14.9008 17.7897C9.95832 20.4498 6.87594 25.6092 6.87594 31.2221V49.0685C6.87594 54.6813 9.95832 59.8407 14.9008 62.5008L33.2706 72.3876C37.7841 74.8168 43.2159 74.8168 47.7294 72.3876L66.0992 62.5008C71.0417 59.8407 74.1241 54.6813 74.1241 49.0685V31.2221C74.1241 25.6092 71.0417 20.4498 66.0992 17.7897ZM48.2114 7.00745C43.397 4.4163 37.6031 4.4163 32.7887 7.00745L14.4188 16.8942C9.14686 19.7316 5.85899 25.235 5.85899 31.2221V49.0685C5.85899 55.0555 9.14686 60.5589 14.4188 63.3963L32.7887 73.2831C37.6031 75.8742 43.397 75.8742 48.2114 73.2831L66.5812 63.3963C71.8531 60.5589 75.141 55.0555 75.141 49.0685V31.2221C75.141 25.235 71.8532 19.7316 66.5812 16.8942L48.2114 7.00745Z" fill="#2F2F2F"/>
</svg>
