<svg width="23" height="23" viewBox="0 0 23 23" fill="none" xmlns="http://www.w3.org/2000/svg">
<path d="M12.5 7.5C12.5 6.94772 12.0523 6.5 11.5 6.5C10.9477 6.5 10.5 6.94772 10.5 7.5V10.5H7.5C6.94772 10.5 6.5 10.9477 6.5 11.5C6.5 12.0523 6.94772 12.5 7.5 12.5H10.5V15.5C10.5 16.0523 10.9477 16.5 11.5 16.5C12.0523 16.5 12.5 16.0523 12.5 15.5V12.5H15.5C16.0523 12.5 16.5 12.0523 16.5 11.5C16.5 10.9477 16.0523 10.5 15.5 10.5H12.5V7.5Z" fill="#0087D2"/>
<path fill-rule="evenodd" clip-rule="evenodd" d="M11.5 0.5C5.44772 0.5 0.5 5.44772 0.5 11.5C0.5 17.5523 5.44772 22.5 11.5 22.5C17.5523 22.5 22.5 17.5523 22.5 11.5C22.5 5.44772 17.5523 0.5 11.5 0.5ZM2.5 11.5C2.5 6.55228 6.55228 2.5 11.5 2.5C16.4477 2.5 20.5 6.55228 20.5 11.5C20.5 16.4477 16.4477 20.5 11.5 20.5C6.55228 20.5 2.5 16.4477 2.5 11.5Z" fill="#0087D2"/>
</svg>
