<svg width="11" height="12" viewBox="0 0 11 12" fill="none" xmlns="http://www.w3.org/2000/svg">
<path d="M6.45835 1.62484C6.45835 1.1646 6.08526 0.791504 5.62502 0.791504C5.16478 0.791504 4.79169 1.1646 4.79169 1.62484V5.1665H1.25002C0.789783 5.1665 0.416687 5.5396 0.416687 5.99984C0.416687 6.46007 0.789783 6.83317 1.25002 6.83317H4.79169V10.3748C4.79169 10.8351 5.16478 11.2082 5.62502 11.2082C6.08526 11.2082 6.45835 10.8351 6.45835 10.3748V6.83317H10C10.4603 6.83317 10.8334 6.46007 10.8334 5.99984C10.8334 5.5396 10.4603 5.1665 10 5.1665H6.45835V1.62484Z" fill="#0087D2"/>
</svg>
