<svg width="24" height="24" viewBox="0 0 24 24" fill="none" xmlns="http://www.w3.org/2000/svg">
<path d="M10.2771 6.63728C10.6676 6.24676 10.6676 5.61359 10.2771 5.22307C9.88658 4.83254 9.25342 4.83254 8.86289 5.22307L2.79289 11.2931C2.60536 11.4806 2.5 11.735 2.5 12.0002C2.5 12.2654 2.60536 12.5197 2.79289 12.7073L8.86289 18.7773C9.25342 19.1678 9.88658 19.1678 10.2771 18.7773C10.6676 18.3868 10.6676 17.7536 10.2771 17.3631L5.91404 13H20.5C21.0523 13 21.5 12.5523 21.5 12C21.5 11.4477 21.0523 11 20.5 11H5.91439L10.2771 6.63728Z" fill="white"/>
</svg>
