<svg width="24" height="24" viewBox="0 0 24 24" fill="none" xmlns="http://www.w3.org/2000/svg">
<path fill-rule="evenodd" clip-rule="evenodd" d="M2 1C1.44772 1 1 1.44772 1 2C1 2.55228 1.44772 3 2 3H3.99002C4.47456 3 4.85318 3.41836 4.80496 3.9005L3.72486 14.7015C3.54826 16.4675 4.93511 18 6.70998 18H18.6479C20.2155 18 21.5189 16.7931 21.6391 15.2301L22.3314 6.23009C22.4654 4.48771 21.0878 3 19.3402 3H6.68858C6.33968 1.85173 5.27268 1 3.99002 1H2ZM5.71494 14.9005L6.70499 5H19.3402C19.9228 5 20.382 5.4959 20.3373 6.0767L20.2663 7H9C8.44772 7 8 7.44772 8 8C8 8.55228 8.44772 9 9 9H20.1124L19.645 15.0767C19.6049 15.5977 19.1705 16 18.6479 16H6.70998C6.11835 16 5.65607 15.4892 5.71494 14.9005Z" fill="black"/>
<path d="M8.5 22.5C8.89782 22.5 9.27936 22.342 9.56066 22.0607C9.84196 21.7794 10 21.3978 10 21C10 20.6022 9.84196 20.2206 9.56066 19.9393C9.27936 19.658 8.89782 19.5 8.5 19.5C8.10218 19.5 7.72064 19.658 7.43934 19.9393C7.15804 20.2206 7 20.6022 7 21C7 21.3978 7.15804 21.7794 7.43934 22.0607C7.72064 22.342 8.10218 22.5 8.5 22.5Z" fill="black"/>
<path d="M17.5607 22.0607C17.2794 22.342 16.8978 22.5 16.5 22.5C16.1022 22.5 15.7206 22.342 15.4393 22.0607C15.158 21.7794 15 21.3978 15 21C15 20.6022 15.158 20.2206 15.4393 19.9393C15.7206 19.658 16.1022 19.5 16.5 19.5C16.8978 19.5 17.2794 19.658 17.5607 19.9393C17.842 20.2206 18 20.6022 18 21C18 21.3978 17.842 21.7794 17.5607 22.0607Z" fill="black"/>
</svg>
