<svg width="24" height="24" viewBox="0 0 24 24" fill="none" xmlns="http://www.w3.org/2000/svg">
<path d="M11.4481 7.76387C11.0581 7.37279 10.425 7.37189 10.0339 7.76186C9.64281 8.15183 9.64191 8.785 10.0319 9.17607L12.8478 12L10.0319 14.8239C9.64191 15.2149 9.64281 15.8481 10.0339 16.2381C10.425 16.628 11.0581 16.6272 11.4481 16.2361L14.9681 12.7061C15.3573 12.3158 15.3573 11.6842 14.9681 11.2939L11.4481 7.76387Z" fill="black"/>
<path fill-rule="evenodd" clip-rule="evenodd" d="M12 1C5.94772 1 1 5.94772 1 12C1 18.0523 5.94772 23 12 23C18.0523 23 23 18.0523 23 12C23 5.94772 18.0523 1 12 1ZM3 12C3 7.05228 7.05228 3 12 3C16.9477 3 21 7.05228 21 12C21 16.9477 16.9477 21 12 21C7.05228 21 3 16.9477 3 12Z" fill="black"/>
</svg>
