<svg width="65" height="64" viewBox="0 0 65 64" fill="none" xmlns="http://www.w3.org/2000/svg">
<g clip-path="url(#clip0_846_15448)">
<path fill-rule="evenodd" clip-rule="evenodd" d="M6.69342 8.38525L8.57052 28.7289L8.56985 28.7292C8.87705 32.0574 11.0809 34.8345 14.1123 35.9526L11.8085 39.6283C10.9042 41.0707 10.8528 42.8922 11.6785 44.3836C12.5042 45.8751 14.0742 46.8008 15.7766 46.8008H55.9665C57.1441 46.8008 58.0998 45.8451 58.0998 44.6674C58.0998 43.4898 57.1441 42.5341 55.9665 42.5341H15.7766C15.6252 42.5341 15.4842 42.4512 15.4118 42.3188C15.3371 42.1865 15.3433 42.0222 15.4223 41.8941L18.6586 36.7355C22.1129 37.1427 26.6283 37.6345 31.1167 38.1233C36.8086 38.7433 42.4571 39.3585 45.8435 39.7904C49.5364 40.2619 53.1097 38.2823 54.6692 34.9008C57.2807 29.2469 61.8227 19.4063 64.1074 14.4548C64.7174 13.1343 64.6108 11.5938 63.8279 10.3672C63.0427 9.1424 61.688 8.40002 60.2331 8.40002H11.3734C11.2414 8.40002 11.111 8.40669 10.981 8.41716L10.9405 7.99239C10.6272 4.59622 7.77911 2 4.37002 2H2.6314C1.45381 2 0.5 2.95377 0.5 4.1314V4.1333C0.5 5.31094 1.45572 6.26665 2.63335 6.26665H4.37002C5.57531 6.26665 6.58246 7.18428 6.69342 8.38525ZM11.3743 12.6666H60.2341L50.7979 33.1126C50.017 34.8045 48.2317 35.7922 46.3841 35.5574C43.001 35.1265 37.3593 34.5121 31.6717 33.8927C25.9007 33.2642 20.0824 32.6306 16.5282 32.1783C14.5462 31.9245 13.0038 30.3288 12.8205 28.3363L11.3743 12.6666Z" fill="#0087D2"/>
<path fill-rule="evenodd" clip-rule="evenodd" d="M19.8773 50.0002C16.3468 50.0002 13.4772 52.8674 13.4772 56.4002C13.4772 59.933 16.3468 62.8003 19.8773 62.8003C23.4101 62.8003 26.2773 59.933 26.2773 56.4002C26.2773 52.8674 23.4101 50.0002 19.8773 50.0002ZM19.8773 54.2669C21.0549 54.2669 22.0106 55.2226 22.0106 56.4002C22.0106 57.5778 21.0549 58.5336 19.8773 58.5336C18.6996 58.5336 17.7439 57.5778 17.7439 56.4002C17.7439 55.2226 18.6996 54.2669 19.8773 54.2669Z" fill="#0087D2"/>
<path fill-rule="evenodd" clip-rule="evenodd" d="M46.1906 50.0002C42.6578 50.0002 39.7906 52.8674 39.7906 56.4002C39.7906 59.933 42.6578 62.8003 46.1906 62.8003C49.7211 62.8003 52.5906 59.933 52.5906 56.4002C52.5906 52.8674 49.7211 50.0002 46.1906 50.0002ZM46.1906 54.2669C47.3682 54.2669 48.3239 55.2226 48.3239 56.4002C48.3239 57.5778 47.3682 58.5336 46.1906 58.5336C45.013 58.5336 44.0572 57.5778 44.0572 56.4002C44.0572 55.2226 45.013 54.2669 46.1906 54.2669Z" fill="#0087D2"/>
<path opacity="0.2" d="M10.9108 29.4072L8.95784 11.4396C8.89354 10.848 9.35693 10.3315 9.95199 10.3315H60.2543C61.703 10.3315 62.6712 11.8239 62.0806 13.1468L52.35 34.9434C51.4517 36.9554 49.3423 38.1423 47.1564 37.8656L15.2537 33.8273C12.9575 33.5366 11.1609 31.7081 10.9108 29.4072Z" fill="#0087D2"/>
</g>
<defs>
<clipPath id="clip0_846_15448">
<rect width="64" height="64" fill="white" transform="translate(0.5)"/>
</clipPath>
</defs>
</svg>
