<svg width="24" height="24" viewBox="0 0 24 24" fill="none" xmlns="http://www.w3.org/2000/svg">
<path d="M6 2C6 1.44772 5.55228 1 5 1C4.44772 1 4 1.44772 4 2V7C4 7.55228 4.44772 8 5 8C5.55228 8 6 7.55228 6 7V2Z" fill="white"/>
<path d="M20 2C20 1.44772 19.5523 1 19 1C18.4477 1 18 1.44772 18 2V7C18 7.55228 18.4477 8 19 8C19.5523 8 20 7.55228 20 7V2Z" fill="white"/>
<path d="M13 17C13 16.4477 12.5523 16 12 16C11.4477 16 11 16.4477 11 17V22C11 22.5523 11.4477 23 12 23C12.5523 23 13 22.5523 13 22V17Z" fill="white"/>
<path d="M3 10C2.44772 10 2 10.4477 2 11C2 11.5523 2.44772 12 3 12H4V22C4 22.5523 4.44772 23 5 23C5.55228 23 6 22.5523 6 22V12H7C7.55228 12 8 11.5523 8 11C8 10.4477 7.55228 10 7 10H3Z" fill="white"/>
<path d="M16 11C16 10.4477 16.4477 10 17 10H21C21.5523 10 22 10.4477 22 11C22 11.5523 21.5523 12 21 12H20V22C20 22.5523 19.5523 23 19 23C18.4477 23 18 22.5523 18 22V12H17C16.4477 12 16 11.5523 16 11Z" fill="white"/>
<path d="M13 2C13 1.44772 12.5523 1 12 1C11.4477 1 11 1.44772 11 2V12H10C9.44772 12 9 12.4477 9 13C9 13.5523 9.44772 14 10 14H14C14.5523 14 15 13.5523 15 13C15 12.4477 14.5523 12 14 12H13V2Z" fill="white"/>
</svg>
