<svg width="33" height="32" viewBox="0 0 33 32" fill="none" xmlns="http://www.w3.org/2000/svg">
<path d="M9.1251 5.52131L9.21843 10.5746C9.23177 11.268 8.79177 12.188 8.23177 12.6013L4.9251 15.108C2.8051 16.708 3.15177 18.668 5.6851 19.468L9.99177 20.8146C10.7118 21.0413 11.4718 21.828 11.6584 22.5613L12.6851 26.4813C13.4984 29.5746 15.5251 29.8813 17.2051 27.1613L19.5518 23.3613C19.9784 22.668 20.9918 22.148 21.7918 22.188L26.2451 22.4146C29.4318 22.5746 30.3384 20.7346 28.2584 18.308L25.6184 15.2413C25.1251 14.668 24.8984 13.6013 25.1251 12.8813L26.4718 8.57464C27.2584 6.04131 25.8451 4.64131 23.3251 5.46797L19.3918 6.76131C18.7251 6.97464 17.7251 6.82797 17.1651 6.41464L13.0584 3.45464C10.8451 1.85464 9.07176 2.78797 9.1251 5.52131Z" fill="#FFB800"/>
<path opacity="0.34" fill-rule="evenodd" clip-rule="evenodd" d="M9.20711 17.9595C9.59763 18.3501 9.59763 18.9832 9.20711 19.3738L5.20711 23.3738C4.81658 23.7643 4.18342 23.7643 3.79289 23.3738C3.40237 22.9832 3.40237 22.3501 3.79289 21.9595L7.79289 17.9595C8.18342 17.569 8.81658 17.569 9.20711 17.9595ZM10.5404 24.6262C10.931 25.0167 10.931 25.6499 10.5404 26.0404L6.54044 30.0404C6.14992 30.431 5.51675 30.431 5.12623 30.0404C4.7357 29.6499 4.7357 29.0167 5.12623 28.6262L9.12623 24.6262C9.51675 24.2357 10.1499 24.2357 10.5404 24.6262ZM23.8738 26.0404C24.2643 25.6499 24.2643 25.0167 23.8738 24.6262C23.4832 24.2357 22.8501 24.2357 22.4596 24.6262L18.4596 28.6262C18.069 29.0167 18.069 29.6499 18.4596 30.0404C18.8501 30.431 19.4832 30.431 19.8738 30.0404L23.8738 26.0404Z" fill="#FFB800"/>
</svg>
