<svg width="20" height="20" viewBox="0 0 20 20" fill="none" xmlns="http://www.w3.org/2000/svg">
<path d="M12.0642 4.16467C11.6034 4.0105 11.25 3.60457 11.25 3.11867V1.15488C11.25 0.563704 11.7621 0.0968648 12.3404 0.219689C13.7074 0.51004 14.9269 1.07773 15.99 1.86C16.49 2.22 16.53 2.95 16.09 3.38L14.7 4.74C14.36 5.06999 13.84 5.13 13.45 4.86C13.0713 4.59746 12.6111 4.34767 12.0642 4.16467Z" fill="white"/>
<path d="M8.16482 0.215634C8.7417 0.0966726 9.25 0.562307 9.25 1.15132V3.09801C9.25 3.58989 8.88854 3.99986 8.41908 4.14666C6.76377 4.66425 5.41593 5.8935 4.70995 7.48196C4.62995 7.66196 4.55995 7.84196 4.49995 8.02196C4.29995 8.64196 4.17995 9.31196 4.17995 10.002C4.17995 10.692 4.29995 11.352 4.50995 11.982C5.12247 13.8274 6.586 15.2781 8.42112 15.8548C8.88966 16.002 9.25 16.4116 9.25 16.9028V18.8511C9.25 19.4404 8.74116 19.9062 8.16408 19.7866C7.00108 19.5456 5.88558 19.0975 4.8726 18.4586C3.33547 17.489 2.09303 16.1173 1.27995 14.492H1.26995C0.589951 13.132 0.199951 11.612 0.199951 10.002C0.199951 8.39196 0.589951 6.87196 1.26995 5.51196C2.08417 3.88544 3.32825 2.51294 4.86723 1.54337C5.88214 0.90396 6.99975 0.455889 8.16482 0.215634Z" fill="white"/>
<path d="M11.25 18.8601C11.25 19.4476 11.7558 19.9132 12.3327 19.802C14.1055 19.4601 15.6253 18.6878 16.82 17.58C18.71 15.83 19.8 13.27 19.8 10.22C19.8 9.79 19.78 9.42 19.74 9.06999C19.69 8.55999 19.26 8.18 18.75 8.18H11.2C10.65 8.18 10.2 8.63 10.2 9.18V10.89C10.2 11.44 10.65 11.89 11.2 11.89H15.71C15.6 12.81 15 14.2 13.67 15.13C13.2256 15.4385 12.7046 15.6977 12.0957 15.8749C11.6185 16.0138 11.25 16.4256 11.25 16.9225V18.8601Z" fill="white"/>
</svg>
