<svg width="22" height="22" viewBox="0 0 22 22" fill="none" xmlns="http://www.w3.org/2000/svg">
<path d="M9.1313 5.26812C9.4164 4.24273 9.90861 3.59982 10.6238 3.18229C11.3795 2.7411 12.4894 2.49023 14.1101 2.49023H14.2401C16.3762 2.49023 17.6121 2.92402 18.3392 3.65109C19.0663 4.37817 19.5001 5.61414 19.5001 7.75023V14.2702C19.5001 16.4063 19.0663 17.6423 18.3392 18.3694C17.6121 19.0965 16.3762 19.5302 14.2401 19.5302H14.1101C12.4875 19.5302 11.3774 19.2785 10.6223 18.8362C9.90769 18.4177 9.41592 17.7731 9.13174 16.7444C8.98468 16.212 8.43391 15.8997 7.90157 16.0468C7.36922 16.1938 7.05689 16.7446 7.20395 17.277C7.60392 18.7248 8.37851 19.8399 9.61159 20.5621C10.8042 21.2605 12.3231 21.5302 14.1101 21.5302H14.2401C16.574 21.5302 18.468 21.069 19.7534 19.7836C21.0388 18.4982 21.5001 16.6041 21.5001 14.2702V7.75023C21.5001 5.41633 21.0388 3.5223 19.7534 2.23688C18.468 0.951452 16.574 0.490234 14.2401 0.490234H14.1101C12.3254 0.490234 10.8077 0.758987 9.6154 1.4551C8.38251 2.17489 7.60627 3.28698 7.20439 4.73237C7.05645 5.26447 7.36787 5.81575 7.89997 5.9637C8.43207 6.11164 8.98336 5.80022 9.1313 5.26812Z" fill="#E91B1B"/>
<path d="M5.55711 8.35725C5.94763 7.96673 5.94763 7.33356 5.55711 6.94304C5.16658 6.55252 4.53342 6.55252 4.14289 6.94304L0.792893 10.293C0.402369 10.6836 0.402369 11.3167 0.792893 11.7073L4.14289 15.0573C4.53342 15.4478 5.16658 15.4478 5.55711 15.0573C5.94763 14.6667 5.94763 14.0336 5.55711 13.643L3.91421 12.0001H14C14.5523 12.0001 15 11.5524 15 11.0001C15 10.4479 14.5523 10.0001 14 10.0001H3.91421L5.55711 8.35725Z" fill="#E91B1B"/>
</svg>
