<svg width="25" height="24" viewBox="0 0 25 24" fill="none" xmlns="http://www.w3.org/2000/svg">
<path d="M5.715 3.94L5.515 6.39C5.475 6.86 5.845 7.25 6.315 7.25H21.625C22.045 7.25 22.395 6.93 22.425 6.51C22.555 4.74 21.205 3.3 19.435 3.3H7.165C7.065 2.86 6.865 2.44 6.555 2.09C6.31115 1.82662 6.01579 1.61616 5.68723 1.47166C5.35867 1.32716 5.00393 1.25172 4.645 1.25H2.875C2.465 1.25 2.125 1.59 2.125 2C2.125 2.41 2.465 2.75 2.875 2.75H4.615C4.925 2.75 5.215 2.88 5.425 3.1C5.635 3.33 5.735 3.63 5.715 3.94Z" fill="#0087D2"/>
<path d="M17.125 22.5C17.5891 22.5 18.0342 22.3156 18.3624 21.9874C18.6906 21.6592 18.875 21.2141 18.875 20.75C18.875 20.2859 18.6906 19.8408 18.3624 19.5126C18.0342 19.1844 17.5891 19 17.125 19C16.6609 19 16.2158 19.1844 15.8876 19.5126C15.5594 19.8408 15.375 20.2859 15.375 20.75C15.375 21.2141 15.5594 21.6592 15.8876 21.9874C16.2158 22.3156 16.6609 22.5 17.125 22.5Z" fill="#0087D2"/>
<path d="M9.125 22.5C9.58913 22.5 10.0342 22.3156 10.3624 21.9874C10.6906 21.6592 10.875 21.2141 10.875 20.75C10.875 20.2859 10.6906 19.8408 10.3624 19.5126C10.0342 19.1844 9.58913 19 9.125 19C8.66087 19 8.21575 19.1844 7.88756 19.5126C7.55937 19.8408 7.375 20.2859 7.375 20.75C7.375 21.2141 7.55937 21.6592 7.88756 21.9874C8.21575 22.3156 8.66087 22.5 9.125 22.5Z" fill="#0087D2"/>
<path d="M6.04499 8.74999H21.385C21.4943 8.74845 21.6028 8.76987 21.7033 8.81285C21.8039 8.85584 21.8943 8.91944 21.9688 8.99954C22.0432 9.07964 22.1 9.17447 22.1356 9.27789C22.1711 9.38132 22.1845 9.49104 22.175 9.59999L21.845 14.27C21.735 15.77 20.415 17 18.915 17H7.79499C6.08499 17 4.74499 15.53 4.88499 13.83L5.24499 9.47999C5.28499 9.06999 5.62499 8.74999 6.04499 8.74999Z" fill="#0087D2"/>
</svg>
