<svg width="25" height="24" viewBox="0 0 25 24" fill="none" xmlns="http://www.w3.org/2000/svg">
<g opacity="0.5">
<path fill-rule="evenodd" clip-rule="evenodd" d="M2.875 1C2.32272 1 1.875 1.44772 1.875 2C1.875 2.55228 2.32272 3 2.875 3H4.86502C5.34956 3 5.72818 3.41836 5.67996 3.9005L4.59986 14.7015C4.42326 16.4675 5.81011 18 7.58498 18H19.5229C21.0905 18 22.3939 16.7931 22.5141 15.2301L23.2064 6.23009C23.3404 4.48771 21.9628 3 20.2152 3H7.56358C7.21468 1.85173 6.14768 1 4.86502 1H2.875ZM6.58994 14.9005L7.57999 5H20.2152C20.7978 5 21.257 5.4959 21.2123 6.0767L21.1413 7H9.875C9.32272 7 8.875 7.44772 8.875 8C8.875 8.55228 9.32272 9 9.875 9H20.9874L20.52 15.0767C20.4799 15.5977 20.0455 16 19.5229 16H7.58498C6.99335 16 6.53107 15.4892 6.58994 14.9005Z" fill="#EEF0F1"/>
<path d="M9.375 22.5C9.77282 22.5 10.1544 22.342 10.4357 22.0607C10.717 21.7794 10.875 21.3978 10.875 21C10.875 20.6022 10.717 20.2206 10.4357 19.9393C10.1544 19.658 9.77282 19.5 9.375 19.5C8.97718 19.5 8.59564 19.658 8.31434 19.9393C8.03304 20.2206 7.875 20.6022 7.875 21C7.875 21.3978 8.03304 21.7794 8.31434 22.0607C8.59564 22.342 8.97718 22.5 9.375 22.5Z" fill="#EEF0F1"/>
<path d="M18.4357 22.0607C18.1544 22.342 17.7728 22.5 17.375 22.5C16.9772 22.5 16.5956 22.342 16.3143 22.0607C16.033 21.7794 15.875 21.3978 15.875 21C15.875 20.6022 16.033 20.2206 16.3143 19.9393C16.5956 19.658 16.9772 19.5 17.375 19.5C17.7728 19.5 18.1544 19.658 18.4357 19.9393C18.717 20.2206 18.875 20.6022 18.875 21C18.875 21.3978 18.717 21.7794 18.4357 22.0607Z" fill="#EEF0F1"/>
</g>
</svg>
