<svg width="25" height="24" viewBox="0 0 25 24" fill="none" xmlns="http://www.w3.org/2000/svg">
<g opacity="0.5">
<path d="M5.625 7.48804C5.07272 7.48804 4.625 7.93576 4.625 8.48804C4.625 9.04033 5.07272 9.48804 5.625 9.48804H7.875C8.42728 9.48804 8.875 9.04033 8.875 8.48804C8.875 7.93576 8.42728 7.48804 7.875 7.48804H5.625Z" fill="#EEF0F1"/>
<path d="M5.625 10.488C5.07272 10.488 4.625 10.9358 4.625 11.488C4.625 12.0403 5.07272 12.488 5.625 12.488H8.625C9.17728 12.488 9.625 12.0403 9.625 11.488C9.625 10.9358 9.17728 10.488 8.625 10.488H5.625Z" fill="#EEF0F1"/>
<path fill-rule="evenodd" clip-rule="evenodd" d="M11.8666 4.1587C9.952 2.96726 6.62531 1.85847 4.36721 1.67529C2.59057 1.52684 1.125 2.89118 1.125 4.66191V16.7419C1.125 18.1961 2.26912 19.5264 3.7339 19.7133L4.01837 19.7525L4.02254 19.7531C6.07025 20.0267 9.30256 21.088 11.1152 22.0793C11.1259 22.0852 11.1368 22.0908 11.1478 22.0963L11.1726 22.1087C11.4837 22.2753 11.8256 22.3344 12.1188 22.3344C12.4142 22.3344 12.7667 22.2743 13.0845 22.0939C14.8956 21.0957 18.1271 20.0283 20.1812 19.7539L20.5053 19.7146L20.509 19.7142C21.9772 19.5307 23.125 18.1984 23.125 16.7419V4.67191C23.125 2.89648 21.6645 1.5601 19.917 1.68191H19.895C19.8665 1.68191 19.838 1.68312 19.8096 1.68556C17.5508 1.87917 14.2075 3.00055 12.2924 4.20551L12.2817 4.21234L12.1539 4.29503L12.1507 4.29544C12.1431 4.29635 12.1344 4.29691 12.125 4.29691C12.1156 4.29691 12.1069 4.29635 12.0993 4.29544L12.0932 4.29461L11.8666 4.1587ZM3.125 4.66191C3.125 4.05314 3.59859 3.61775 4.20126 3.66839L4.20431 3.66864C6.14323 3.82561 9.16973 4.83392 10.8159 5.86044L10.8305 5.8694L11.0754 6.01636C11.0919 6.02643 11.1084 6.03618 11.125 6.04562V19.8499C9.08104 18.9077 6.25417 18.0339 4.28956 17.771L4.28746 17.7707L4.00163 17.7313L3.98903 17.7296C3.53719 17.6731 3.125 17.2054 3.125 16.7419V4.66191ZM13.125 19.8382C15.1679 18.8974 17.9685 18.0306 19.9231 17.7706L19.9347 17.7691L20.261 17.7296L20.2624 17.7295C20.7137 17.6722 21.125 17.2049 21.125 16.7419V4.67191C21.125 4.06279 20.651 3.62694 20.0387 3.67839C20.0109 3.68073 19.983 3.68191 19.955 3.68191H19.9391C17.9984 3.85884 14.9973 4.86843 13.3628 5.89502L13.1983 6.00148L13.1824 6.01155C13.1634 6.02333 13.1443 6.03468 13.125 6.04562V19.8382Z" fill="#EEF0F1"/>
</g>
</svg>
