<svg width="25" height="24" viewBox="0 0 25 24" fill="none" xmlns="http://www.w3.org/2000/svg">
<g opacity="0.5">
<path fill-rule="evenodd" clip-rule="evenodd" d="M8.38234 2.75736C9.50756 1.63214 11.0337 1 12.625 1C14.2163 1 15.7424 1.63214 16.8676 2.75736C17.9928 3.88258 18.625 5.4087 18.625 7C18.625 8.5913 17.9928 10.1174 16.8676 11.2426C15.7424 12.3679 14.2163 13 12.625 13C11.0337 13 9.50756 12.3679 8.38234 11.2426C7.25712 10.1174 6.62498 8.5913 6.62498 7C6.62498 5.4087 7.25712 3.88258 8.38234 2.75736ZM12.625 3C11.5641 3 10.5467 3.42143 9.79656 4.17157C9.04641 4.92172 8.62498 5.93913 8.62498 7C8.62498 8.06087 9.04641 9.07828 9.79656 9.82843C10.5467 10.5786 11.5641 11 12.625 11C13.6858 11 14.7033 10.5786 15.4534 9.82843C16.2036 9.07828 16.625 8.06087 16.625 7C16.625 5.93913 16.2036 4.92172 15.4534 4.17157C14.7033 3.42143 13.6858 3 12.625 3Z" fill="#EEF0F1"/>
<path d="M12.6249 14C8.12159 14 4.32298 17.3533 3.76441 21.8219L3.69112 22.4083C3.62261 22.9563 4.01134 23.4561 4.55936 23.5246C5.10738 23.5931 5.60717 23.2044 5.67567 22.6563L5.74897 22.07C6.18243 18.6023 9.13024 16 12.6249 16C16.1196 16 19.0674 18.6023 19.5009 22.07L19.5742 22.6563C19.6427 23.2044 20.1425 23.5931 20.6905 23.5246C21.2385 23.4561 21.6272 22.9563 21.5587 22.4083L21.4855 21.8219C20.9269 17.3533 17.1283 14 12.6249 14Z" fill="#EEF0F1"/>
</g>
</svg>
