<svg width="25" height="24" viewBox="0 0 25 24" fill="none" xmlns="http://www.w3.org/2000/svg">
<path fill-rule="evenodd" clip-rule="evenodd" d="M14.655 2.79201L20.415 6.82201C21.515 7.59201 22.385 9.25201 22.385 10.602V17.382C22.385 19.932 20.315 22.002 17.765 22.002H6.98499C4.43499 22.002 2.36499 19.922 2.36499 17.372V10.472C2.36499 9.21201 3.15499 7.61201 4.15499 6.83201L9.16499 2.92201C10.675 1.75201 13.085 1.69201 14.655 2.79201ZM13.375 14.988C13.375 14.4357 12.9273 13.988 12.375 13.988C11.8227 13.988 11.375 14.4357 11.375 14.988V17.988C11.375 18.5403 11.8227 18.988 12.375 18.988C12.9273 18.988 13.375 18.5403 13.375 17.988V14.988Z" fill="#0087D2"/>
</svg>
