<svg width="25" height="24" viewBox="0 0 25 24" fill="none" xmlns="http://www.w3.org/2000/svg">
<path fill-rule="evenodd" clip-rule="evenodd" d="M12.125 21.33V21.332C11.955 21.332 11.775 21.302 11.635 21.222L11.595 21.202C9.675 20.152 6.325 19.052 4.155 18.762L3.865 18.722C2.905 18.602 2.125 17.702 2.125 16.742V4.66199C2.125 3.47199 3.095 2.57199 4.285 2.67199C6.385 2.84199 9.565 3.90199 11.345 5.01199L11.595 5.16199C11.745 5.25199 11.935 5.30199 12.125 5.30199V5.3C12.315 5.3 12.505 5.25 12.655 5.16L12.825 5.05C14.605 3.93 17.795 2.86 19.895 2.68H19.955C21.145 2.58 22.125 3.47 22.125 4.67V16.74C22.125 17.7 21.345 18.6 20.385 18.72L20.055 18.76C17.875 19.05 14.515 20.16 12.595 21.22C12.465 21.3 12.305 21.33 12.125 21.33ZM5.625 9.23801H7.875C8.285 9.23801 8.625 8.89801 8.625 8.48801C8.625 8.07801 8.285 7.73801 7.875 7.73801H5.625C5.215 7.73801 4.875 8.07801 4.875 8.48801C4.875 8.89801 5.215 9.23801 5.625 9.23801ZM5.625 12.238H8.625C9.035 12.238 9.375 11.898 9.375 11.488C9.375 11.078 9.035 10.738 8.625 10.738H5.625C5.215 10.738 4.875 11.078 4.875 11.488C4.875 11.898 5.215 12.238 5.625 12.238Z" fill="#0087D2"/>
</svg>
