<svg width="25" height="24" viewBox="0 0 25 24" fill="none" xmlns="http://www.w3.org/2000/svg">
<g opacity="0.5">
<path d="M13.375 14.988C13.375 14.4358 12.9273 13.988 12.375 13.988C11.8227 13.988 11.375 14.4358 11.375 14.988V17.988C11.375 18.5403 11.8227 18.988 12.375 18.988C12.9273 18.988 13.375 18.5403 13.375 17.988V14.988Z" fill="#EEF0F1"/>
<path fill-rule="evenodd" clip-rule="evenodd" d="M14.9685 1.89873C14.0631 1.26496 12.9313 0.991701 11.8528 1.01699C10.7743 1.04228 9.6557 1.36834 8.78106 2.04861L3.39106 6.24861C2.7895 6.71655 2.29627 7.40015 1.95474 8.09623C1.61337 8.79198 1.375 9.599 1.375 10.358V17.768C1.375 20.6372 3.70963 22.988 6.585 22.988H18.165C21.0388 22.988 23.375 20.6387 23.375 17.778V10.498C23.375 9.69002 23.1115 8.84073 22.7327 8.11522C22.3543 7.39014 21.8089 6.68934 21.1478 6.22828L21.1468 6.22757L14.9685 1.89873ZM10.0093 3.62704C10.4846 3.25748 11.1659 3.03365 11.8997 3.01644C12.6335 2.99923 13.3266 3.19088 13.8212 3.53695L20.0012 7.86695L20.0032 7.86836C20.3317 8.09732 20.6859 8.51616 20.9598 9.04071C21.2335 9.5652 21.375 10.0959 21.375 10.498V17.778C21.375 19.5372 19.9312 20.988 18.165 20.988H6.585C4.82037 20.988 3.375 19.5388 3.375 17.768V10.358C3.375 9.98693 3.50163 9.48395 3.75026 8.9772C3.9987 8.47085 4.32057 8.05938 4.61894 7.82732L10.0093 3.62704Z" fill="#EEF0F1"/>
</g>
</svg>
