<svg width="25" height="24" viewBox="0 0 25 24" fill="none" xmlns="http://www.w3.org/2000/svg">
<path d="M12.625 12C13.9511 12 15.2228 11.4732 16.1605 10.5355C17.0982 9.59785 17.625 8.32608 17.625 7C17.625 5.67392 17.0982 4.40215 16.1605 3.46447C15.2228 2.52678 13.9511 2 12.625 2C11.2989 2 10.0271 2.52678 9.08946 3.46447C8.15178 4.40215 7.62499 5.67392 7.62499 7C7.62499 8.32608 8.15178 9.59785 9.08946 10.5355C10.0271 11.4732 11.2989 12 12.625 12Z" fill="#0087D2"/>
<path d="M20.4932 19.9459L20.5665 20.5323C20.5757 20.606 20.5897 20.6812 20.6037 20.7567C20.6486 20.9982 20.6941 21.2431 20.5867 21.4551C20.2877 22.0453 18.8431 23 12.625 23C6.40688 23 4.9622 22.0453 4.6632 21.4551C4.5558 21.2431 4.60132 20.9982 4.64621 20.7567C4.66024 20.6812 4.67421 20.606 4.68343 20.5323L4.75672 19.9459C5.25274 15.9778 8.62595 13 12.625 13C16.624 13 19.9972 15.9778 20.4932 19.9459Z" fill="#0087D2"/>
</svg>
