<svg width="24" height="24" viewBox="0 0 24 24" fill="none" xmlns="http://www.w3.org/2000/svg">
<path d="M9 12C9 10.3413 10.3413 9 12 9C13.6587 9 15 10.3413 15 12C15 13.6587 13.6587 15 12 15C10.3413 15 9 13.6587 9 12Z" fill="#0087D2"/>
<path fill-rule="evenodd" clip-rule="evenodd" d="M12 2.71899C8.046 2.71899 4.47118 5.05046 2.04663 8.86161C1.4697 9.76582 1.21497 10.9103 1.21497 11.994C1.21497 13.0775 1.46958 14.2216 2.04621 15.1257C4.47077 18.9373 8.04577 21.269 12 21.269C15.9539 21.269 19.5287 18.9375 21.9533 15.1264C22.5302 14.2222 22.785 13.0777 22.785 11.994C22.785 10.9105 22.5304 9.76638 21.9537 8.86227C19.5292 5.05073 15.9542 2.71899 12 2.71899ZM3.73372 9.93572C5.88916 6.54726 8.89416 4.71899 12 4.71899C15.1058 4.71899 18.1108 6.54726 20.2662 9.93572L20.267 9.93703C20.5898 10.4427 20.785 11.188 20.785 11.994C20.785 12.8 20.5898 13.5453 20.267 14.051L20.2662 14.0523C18.1108 17.4407 15.1058 19.269 12 19.269C8.89416 19.269 5.88916 17.4407 3.73372 14.0523L3.73289 14.051C3.41011 13.5453 3.21497 12.8 3.21497 11.994C3.21497 11.188 3.41011 10.4427 3.73289 9.93703L3.73372 9.93572Z" fill="#0087D2"/>
</svg>
