<svg width="20" height="21" viewBox="0 0 20 21" fill="none" xmlns="http://www.w3.org/2000/svg">
<g opacity="0.4">
<path d="M7.44804 7.16845C7.90738 7.13974 8.30302 7.48884 8.33173 7.94818L8.7484 14.6148C8.77711 15.0742 8.42801 15.4698 7.96867 15.4985C7.50933 15.5272 7.11369 15.1782 7.08498 14.7188L6.66831 8.05214C6.6396 7.5928 6.9887 7.19716 7.44804 7.16845Z" fill="white"/>
<path d="M11.6683 7.94818C11.697 7.48884 12.0927 7.13974 12.552 7.16845C13.0113 7.19716 13.3604 7.5928 13.3317 8.05214L12.9151 14.7188C12.8864 15.1782 12.4907 15.5272 12.0314 15.4985C11.572 15.4698 11.2229 15.0742 11.2516 14.6148L11.6683 7.94818Z" fill="white"/>
<path fill-rule="evenodd" clip-rule="evenodd" d="M5.83335 3.8335C5.83335 2.45278 6.95264 1.3335 8.33335 1.3335H11.6667C13.0474 1.3335 14.1667 2.45278 14.1667 3.8335H17.5C17.9603 3.8335 18.3334 4.20659 18.3334 4.66683C18.3334 5.12707 17.9603 5.50016 17.5 5.50016H17.4174L16.2483 16.6802C16.0708 18.3777 14.6397 19.6668 12.933 19.6668H7.06703C5.3603 19.6668 3.92929 18.3777 3.75178 16.6802L2.58262 5.50016H2.50002C2.03978 5.50016 1.66669 5.12707 1.66669 4.66683C1.66669 4.20659 2.03978 3.8335 2.50002 3.8335H5.83335ZM7.50002 3.8335C7.50002 3.37326 7.87312 3.00016 8.33335 3.00016H11.6667C12.1269 3.00016 12.5 3.37326 12.5 3.8335H7.50002ZM4.25838 5.50016H15.7417L14.5906 16.5068C14.5019 17.3556 13.7864 18.0002 12.933 18.0002H7.06703C6.21366 18.0002 5.49816 17.3556 5.4094 16.5068L4.25838 5.50016Z" fill="white"/>
</g>
</svg>
