<svg width="24" height="24" viewBox="0 0 24 24" fill="none" xmlns="http://www.w3.org/2000/svg">
<path fill-rule="evenodd" clip-rule="evenodd" d="M3.70711 2.29289C3.31658 1.90237 2.68342 1.90237 2.29289 2.29289C1.90237 2.68342 1.90237 3.31658 2.29289 3.70711L20.2929 21.7071C20.6834 22.0976 21.3166 22.0976 21.7071 21.7071C22.0976 21.3166 22.0976 20.6834 21.7071 20.2929L19.5159 18.1016C20.4159 17.2545 21.2351 16.2554 21.9533 15.1264C22.5302 14.2222 22.785 13.0777 22.785 11.994C22.785 10.9105 22.5304 9.76638 21.9537 8.86227C19.5292 5.05073 15.9542 2.71899 12 2.71899C9.8627 2.71899 7.83622 3.4002 6.0423 4.62809L3.70711 2.29289ZM7.48614 6.07193L10.9347 9.5205C11.1368 9.20395 11.4858 9 12 9C13.6587 9 15 10.3413 15 12C15 12.5142 14.7961 12.8632 14.4795 13.0653L18.1019 16.6877C18.887 15.9564 19.6154 15.0754 20.2662 14.0523L20.267 14.051C20.5898 13.5453 20.785 12.8 20.785 11.994C20.785 11.188 20.5898 10.4427 20.267 9.93703L20.2662 9.93572C18.1108 6.54726 15.1058 4.71899 12 4.71899C10.4381 4.71899 8.90178 5.18134 7.48614 6.07193Z" fill="#0087D2"/>
<path d="M2.43642 8.27584C2.77892 7.78365 3.47915 7.74692 3.90315 8.17092C4.2626 8.53036 4.29508 9.09933 4.00836 9.51908C3.91537 9.65522 3.8238 9.79411 3.73372 9.93572L3.73289 9.93703C3.41011 10.4427 3.21497 11.188 3.21497 11.994C3.21497 12.8 3.41011 13.5453 3.73289 14.051L3.73372 14.0523C5.88916 17.4407 8.89416 19.269 12 19.269C12.6569 19.269 13.3093 19.1872 13.9502 19.0261C14.3371 18.9289 14.7534 19.0212 15.0356 19.3033C15.5577 19.8255 15.3891 20.7072 14.6774 20.9042C13.8117 21.1439 12.916 21.269 12 21.269C8.04577 21.269 4.47077 18.9373 2.04621 15.1257C1.46958 14.2216 1.21497 13.0775 1.21497 11.994C1.21497 10.9103 1.4697 9.76582 2.04663 8.86161C2.17345 8.66227 2.30341 8.46697 2.43642 8.27584Z" fill="#0087D2"/>
</svg>
