<svg width="24" height="24" viewBox="0 0 24 24" fill="none" xmlns="http://www.w3.org/2000/svg">
<path fill-rule="evenodd" clip-rule="evenodd" d="M2.91789 2.91789C4.32218 1.5136 6.40137 1 9 1H15C17.5986 1 19.6778 1.5136 21.0821 2.91789C22.4864 4.32218 23 6.40137 23 9V15C23 17.5986 22.4864 19.6778 21.0821 21.0821C19.6778 22.4864 17.5986 23 15 23H9C6.40137 23 4.32218 22.4864 2.91789 21.0821C1.5136 19.6778 1 17.5986 1 15V9C1 6.40137 1.5136 4.32218 2.91789 2.91789ZM4.33211 4.33211C3.4864 5.17782 3 6.59863 3 9V15C3 17.4014 3.4864 18.8222 4.33211 19.6679C5.17782 20.5136 6.59863 21 9 21H15C17.4014 21 18.8222 20.5136 19.6679 19.6679C20.5136 18.8222 21 17.4014 21 15V9C21 6.59863 20.5136 5.17782 19.6679 4.33211C18.8222 3.4864 17.4014 3 15 3H9C6.59863 3 5.17782 3.4864 4.33211 4.33211ZM7.25 9C7.25 8.44772 7.69772 8 8.25 8H15.75C16.3023 8 16.75 8.44772 16.75 9C16.75 9.55228 16.3023 10 15.75 10H8.25C7.69772 10 7.25 9.55228 7.25 9ZM7.25 15C7.25 14.4477 7.69772 14 8.25 14H15.75C16.3023 14 16.75 14.4477 16.75 15C16.75 15.5523 16.3023 16 15.75 16H8.25C7.69772 16 7.25 15.5523 7.25 15Z" fill="black"/>
</svg>
